<?xml version="1.0" encoding="UTF-8"?><svg id="a" xmlns="http://www.w3.org/2000/svg" viewBox="0 0 25 25"><defs><style>.b{fill:#fff;}</style></defs><path class="b" d="M24.93,7.35c-.06-1.33-.27-2.24-.58-3.03-.31-.83-.81-1.59-1.44-2.21-.62-.63-1.38-1.13-2.21-1.44-.8-.31-1.7-.52-3.03-.58-1.33-.06-1.76-.08-5.15-.08s-3.82,.01-5.15,.08c-1.33,.06-2.24,.27-3.03,.58-.83,.31-1.59,.81-2.21,1.44-.63,.62-1.13,1.38-1.44,2.21-.31,.8-.52,1.7-.58,3.03-.06,1.33-.08,1.76-.08,5.15s.01,3.82,.08,5.15c.06,1.33,.27,2.24,.58,3.03,.31,.83,.81,1.59,1.44,2.21,.62,.64,1.38,1.13,2.21,1.44,.79,.31,1.7,.52,3.03,.58,1.33,.06,1.76,.07,5.15,.07s3.82-.01,5.15-.07c1.33-.06,2.24-.27,3.03-.58,.83-.32,1.58-.81,2.21-1.44,.63-.63,1.12-1.38,1.44-2.21,.31-.79,.52-1.7,.58-3.03,.06-1.33,.07-1.76,.07-5.15s-.01-3.82-.07-5.15Zm-4.81,3.42h0c-.15,.01-.29,.02-.44,.02-.79,0-1.56-.2-2.25-.57-.69-.37-1.28-.92-1.71-1.57v7.3c0,1.07-.32,2.11-.91,3-.59,.89-1.44,1.58-2.42,1.99-.99,.41-2.07,.52-3.12,.31-1.05-.21-2.01-.72-2.76-1.48-.75-.75-1.27-1.72-1.48-2.76-.21-1.05-.1-2.13,.31-3.12s1.1-1.83,1.99-2.42c.89-.59,1.93-.91,3-.91,.11,0,.22,.01,.33,.02v2.66c-.11-.02-.22-.03-.33-.03-.73,0-1.43,.29-1.95,.81-.52,.52-.81,1.22-.81,1.95s.29,1.43,.81,1.95c.52,.52,1.22,.81,1.95,.81,1.52,0,2.86-1.2,2.86-2.72l.03-12.4h2.54c.12,1.11,.62,2.13,1.42,2.91,.8,.77,1.84,1.24,2.95,1.32v2.95Z"/></svg>