<svg width="38" height="32" viewBox="0 0 38 32" fill="none" xmlns="http://www.w3.org/2000/svg">
<path d="M33.9532 8.44196C33.9777 8.77261 33.9777 9.10137 33.9777 9.43014C33.9777 19.4914 26.3198 31.085 12.3248 31.085C8.01308 31.085 4.00747 29.8361 0.636719 27.667C1.2489 27.7369 1.8384 27.7615 2.47514 27.7615C6.03295 27.7615 9.30734 26.5598 11.9242 24.5097C8.57802 24.4398 5.7741 22.2481 4.80671 19.2325C5.27718 19.3024 5.74953 19.3497 6.24457 19.3497C6.92665 19.3497 7.61252 19.2552 8.24926 19.0908C4.75947 18.3842 2.14638 15.3214 2.14638 11.6219V11.5274C3.16101 12.0924 4.33813 12.4457 5.58515 12.4929C3.53511 11.1287 2.19173 8.79529 2.19173 6.15574C2.19173 4.74244 2.56772 3.44629 3.22714 2.31641C6.97389 6.9323 12.6063 9.94973 18.9208 10.2804C18.8037 9.71355 18.7319 9.12594 18.7319 8.53643C18.7319 4.34188 22.1253 0.925781 26.3425 0.925781C28.5343 0.925781 30.5125 1.84405 31.9031 3.32914C33.6225 2.99849 35.2701 2.36175 36.7325 1.49072C36.1676 3.25735 34.964 4.74244 33.3863 5.68527C34.9187 5.519 36.4038 5.09577 37.7679 4.50626C36.7325 6.01403 35.4383 7.35742 33.9532 8.44196Z" fill="white"/>
</svg>
