<svg width="377" height="78" viewBox="0 0 377 78" fill="none" xmlns="http://www.w3.org/2000/svg">
<g clip-path="url(#clip0_1134_2372)">
<path d="M36.6209 72.789L0 77.2947L26.6553 37.7543L56.713 42.9842L36.6209 72.789ZM41.6669 15.4783L36.5405 23.0645H138.702C144.203 23.0644 149.619 21.7132 154.475 19.1298C159.331 16.5464 163.479 12.8098 166.553 8.24836L171.668 0.662109H69.5177C64.0171 0.66229 58.6007 2.01345 53.7445 4.59687C48.8883 7.18028 44.741 10.9169 41.6669 15.4783ZM98.196 27.9611L79.0235 56.4326L100.357 53.8119L117.771 27.9611H98.196ZM123.69 27.9611L106.817 53.0187L120.541 51.3291C122.927 51.0363 125.222 50.2353 127.273 48.9802C129.323 47.7251 131.08 46.045 132.426 44.0532L143.254 27.9611H123.713H123.69ZM6.55176 27.9611L5.74716 29.1106L65.0004 39.4554L51.2072 59.8808L72.4717 57.2716L92.2534 27.9611H6.55176Z" fill="white"/>
<path d="M333.727 0.696841H311.129L307.876 5.52446H322.692L307.876 23.1108H333.336V18.2717H318.899L333.727 0.696841ZM194.45 5.52446H211.232L214.485 0.696841H188.691V23.0993H194.439V16.0877H210.347V11.2256H194.439V5.47848L194.45 5.52446ZM356.635 14.0532L361.233 4.96123L365.83 14.0532H356.635ZM370.302 23.1108H376.67L365.083 0.696841H357.313L345.761 23.0993H352.095L354.497 18.3176H367.899L370.302 23.1108ZM238.68 18.5935C235.703 18.5935 233.588 18.0533 232.289 16.9728C231.606 16.3213 231.079 15.524 230.746 14.6404C230.414 13.7568 230.285 12.8096 230.37 11.8693C230.288 10.9327 230.418 9.98972 230.75 9.11024C231.083 8.23076 231.609 7.43734 232.289 6.78883C233.588 5.73135 235.738 5.21411 238.68 5.21411C241.623 5.21411 243.761 5.75434 245.06 6.81182C245.745 7.45215 246.276 8.24063 246.61 9.11711C246.945 9.99359 247.075 10.9349 246.991 11.8693C247.074 12.8135 246.94 13.7642 246.599 14.6487C246.258 15.5333 245.72 16.3282 245.025 16.9728C243.753 18.0533 241.638 18.5935 238.68 18.5935ZM238.68 23.4211C243.492 23.4211 247.04 22.4479 249.324 20.5016C251.623 18.536 252.772 15.6739 252.772 11.8693C252.772 8.0647 251.623 5.2256 249.324 3.28306C247.025 1.34052 243.496 0.375 238.68 0.375C233.864 0.375 230.289 1.34052 228.013 3.27157C225.738 5.20262 224.565 8.05321 224.565 11.8693C224.565 15.6854 225.715 18.5705 228.013 20.5131C230.312 22.4556 233.841 23.4211 238.68 23.4211ZM294.807 23.1108H286.945L273.669 12.2946H283.152C285.106 12.2946 287.416 12.0302 287.416 9.0877V8.75436C287.416 5.81181 285.117 5.54744 283.152 5.54744H272.807V23.1223H267.06V0.696841H284.761C289.428 0.696841 293.221 3.8233 293.221 8.50149C293.214 10.4701 292.462 12.3632 291.117 13.8004C289.771 15.2375 287.932 16.1122 285.968 16.2487L294.807 23.1108Z" fill="white"/>
<path d="M359.864 72.8466H350.876L347.025 52.789L346.899 52.9154C346.646 56.2603 346.519 59.4672 346.002 62.6856L344.45 72.8466H335.462L340.99 38.1107H349.853L354.082 58.9959L354.209 58.8695C354.269 54.8704 354.53 50.8769 354.991 46.9039L356.393 38.0303L365.381 38.1567L359.864 72.8466ZM320.416 73.3868C310.91 73.3868 308.726 63.9959 310.013 55.5016C311.301 47.0073 316.565 37.628 326.105 37.628C335.646 37.628 337.807 47.1453 336.519 55.5016C335.232 63.858 329.967 73.3868 320.427 73.3868H320.416ZM307.691 72.8581H283.783L296.772 50.8694C297.83 49.2194 298.982 47.6306 300.22 46.1108C298.415 46.2372 296.369 46.3636 294.312 46.3636H290.232L291.507 38.1337H314.381L300.37 61.8005C299.726 62.95 299.094 63.973 298.438 65.0074C300.117 64.881 301.887 64.6281 303.714 64.6281H309.002L307.691 72.8581ZM273.002 72.8581L278.53 38.1337H287.921L282.392 72.8581H273.002ZM261.944 72.8581L258.99 58.4557L258.864 58.5821C258.611 60.3867 258.484 62.0304 258.22 63.7201L256.806 72.9845H247.427L252.944 38.3061H261.933C270.036 38.3061 275.553 40.7544 274.139 49.8809C273.893 51.7982 273.129 53.6123 271.931 55.1289C270.732 56.6455 269.143 57.8074 267.335 58.4902L272.093 72.8925H261.933L261.944 72.8581ZM232.633 73.3638C223.128 73.3638 220.944 63.9729 222.22 55.4786C223.495 46.9843 228.783 37.605 238.312 37.605C247.84 37.605 250.128 47.1223 248.726 55.4786C247.323 63.835 242.174 73.3638 232.633 73.3638ZM208.599 72.7891L210.771 58.8925H206.277L204.093 72.9155H194.702L200.231 38.1797H209.622L207.691 50.651H212.197L214.128 38.1797V38.0533H223.507L217.978 72.7891H208.599ZM188.645 33.4785L181.852 77.2949H369.749L376.646 33.4785H188.645ZM237.001 46.3522C233.404 46.3522 232.243 53.2488 231.863 55.4901C231.484 57.7315 230.461 64.7431 234.047 64.7431C237.633 64.7431 238.806 57.8465 239.185 55.6051C239.565 53.3637 240.473 46.3407 237.001 46.3407V46.3522ZM324.657 46.3407C321.048 46.3407 319.898 53.2373 319.519 55.4786C319.14 57.72 318.117 64.7431 321.703 64.7431C325.289 64.7431 326.45 57.8465 326.829 55.6051C327.209 53.3637 328.255 46.3522 324.657 46.3522V46.3407ZM261.036 45.697L259.622 54.1913H260.277C262.726 54.1913 264.381 52.1338 264.772 49.8119C265.277 46.8579 263.622 45.5705 261.036 45.697Z" fill="white"/>
</g>
<defs>
<clipPath id="clip0_1134_2372">
<rect width="376.669" height="76.92" fill="white" transform="translate(0 0.375)"/>
</clipPath>
</defs>
</svg>
