<svg width="60" height="40" viewBox="0 0 60 40" fill="none" xmlns="http://www.w3.org/2000/svg">
<path d="M59.53 0H0V39.69H59.53V0Z" fill="white"/>
<path d="M59.0095 0.530273V39.1603H0.519531V0.530273H59.0095Z" fill="black"/>
<path d="M35.7377 37.2099C35.3577 37.2399 34.9777 37.0899 34.7377 36.7899C34.4577 36.4099 34.3177 35.9399 34.3477 35.4699C34.3177 34.9899 34.4677 34.5099 34.7477 34.1199C34.9577 33.8399 35.2777 33.6799 35.6277 33.6899C35.9977 33.6799 36.3477 33.8399 36.5777 34.1299C36.8677 34.5599 37.0177 35.0799 36.9977 35.5999V35.7499H35.2177C35.2177 35.9399 35.2677 36.1199 35.3777 36.2699C35.4677 36.3899 35.5977 36.4599 35.7477 36.4599C35.9477 36.4599 36.0877 36.3199 36.1577 36.0299L36.9677 36.1899V36.2399C36.8977 36.5399 36.7377 36.7999 36.5077 36.9999C36.2777 37.1499 36.0077 37.2299 35.7377 37.2099ZM35.2277 35.1199H36.2277C36.2277 34.9399 36.1777 34.7699 36.0777 34.6199C35.9977 34.5199 35.8777 34.4499 35.7477 34.4499C35.6077 34.4499 35.4877 34.5199 35.4077 34.6299C35.2977 34.7699 35.2377 34.9399 35.2277 35.1199Z" fill="white"/>
<path d="M38.8791 37.2104C38.5591 37.2204 38.2491 37.1304 37.9991 36.9404C37.7591 36.7404 37.5991 36.4704 37.5391 36.1604L38.3091 36.0204C38.3191 36.2904 38.5491 36.5004 38.8191 36.4904H38.8291C38.9491 36.4904 39.0691 36.4704 39.1791 36.4104C39.2491 36.3604 39.2891 36.2804 39.2891 36.1904C39.3091 36.1404 39.3091 36.1004 39.2891 36.0504C39.2291 36.0104 39.1591 35.9804 39.0791 35.9604C38.6891 35.8704 38.3291 35.7204 37.9991 35.5004C37.7891 35.3004 37.6691 35.0304 37.6791 34.7404C37.6791 34.4604 37.7891 34.1904 37.9991 34.0004C38.2391 33.7904 38.5591 33.6904 38.8791 33.7104C39.1691 33.6904 39.4591 33.7604 39.7091 33.9204C39.9191 34.1004 40.0591 34.3404 40.1091 34.6104L39.3491 34.7804V34.7304C39.3191 34.5104 39.1191 34.3604 38.8991 34.3804C38.7791 34.3704 38.6591 34.3904 38.5491 34.4504C38.4991 34.4804 38.4591 34.5404 38.4591 34.6004C38.4591 34.6604 38.4891 34.7104 38.5391 34.7404C38.7391 34.8304 38.9491 34.9104 39.1591 34.9604C39.4691 35.0204 39.7591 35.1604 39.9891 35.3804C40.1491 35.5604 40.2291 35.8004 40.2191 36.0404C40.2191 36.3504 40.0991 36.6504 39.8791 36.8604C39.6091 37.1104 39.2491 37.2304 38.8791 37.2104Z" fill="white"/>
<path d="M41.78 37.1304H41V33.7704H41.76V34.0904C41.82 33.9804 41.9 33.8904 41.99 33.8104C42.08 33.7304 42.21 33.6904 42.33 33.6904C42.51 33.6904 42.68 33.7504 42.82 33.8604L42.57 34.7204L42.51 34.6704C42.3 34.5104 42.12 34.5104 41.98 34.6704C41.89 34.7704 41.84 34.9004 41.83 35.0404C41.81 35.3704 41.81 35.7104 41.83 36.0404L41.78 37.1304Z" fill="white"/>
<path d="M44.8391 37.2103C44.6691 37.2103 44.4991 37.1603 44.3591 37.0603C44.2391 36.9803 44.1391 36.8803 44.0491 36.7703V37.1303H43.2891V32.5303H44.0991V34.0503C44.1791 33.9603 44.2791 33.8803 44.3891 33.8103C44.5191 33.7303 44.6791 33.6903 44.8291 33.6903C45.1691 33.6903 45.4891 33.8503 45.6791 34.1403C45.9191 34.5303 46.0291 34.9803 45.9991 35.4303C46.0291 35.8903 45.9091 36.3503 45.6591 36.7403C45.4791 37.0203 45.1691 37.2003 44.8391 37.2103ZM44.6391 34.4503C44.4791 34.4503 44.3391 34.5403 44.2591 34.6703C44.1391 34.8803 44.0791 35.1303 44.0991 35.3803C44.0991 35.5903 44.1091 35.8003 44.1691 36.0003C44.2091 36.1303 44.2791 36.2403 44.3891 36.3203C44.4691 36.3803 44.5691 36.4203 44.6691 36.4203C44.8091 36.4103 44.9291 36.3203 44.9991 36.2003C45.1191 35.9703 45.1791 35.7103 45.1591 35.4503C45.1791 35.1803 45.1191 34.9203 44.9991 34.6803C44.9291 34.5503 44.7891 34.4603 44.6391 34.4503Z" fill="white"/>
<path d="M47.6225 37.1299H46.8125V36.1299H47.6225V37.1299Z" fill="white"/>
<path d="M49.8415 37.2098C49.4515 37.2098 49.0915 37.0298 48.8415 36.7298C48.5515 36.3498 48.4115 35.8798 48.4415 35.3998C48.4415 35.0898 48.5015 34.7898 48.6315 34.5098C48.7415 34.2598 48.9215 34.0498 49.1515 33.8898C49.3715 33.7598 49.6215 33.6898 49.8715 33.6898C50.2915 33.6798 50.6915 33.8698 50.9315 34.2198C51.3615 34.8498 51.4315 35.6598 51.1115 36.3598C51.0015 36.6198 50.8215 36.8398 50.5915 36.9898C50.3715 37.1398 50.1115 37.2198 49.8415 37.2098ZM49.8415 34.4898C49.6715 34.4898 49.5115 34.5898 49.4215 34.7298C49.1815 35.1798 49.1815 35.7198 49.4215 36.1698C49.5215 36.3098 49.6815 36.3998 49.8515 36.3998C50.0215 36.3998 50.1815 36.3098 50.2715 36.1698C50.4015 35.9498 50.4715 35.6998 50.4515 35.4398C50.4715 35.1898 50.4015 34.9398 50.2715 34.7298C50.1715 34.5798 50.0115 34.4898 49.8315 34.4898H49.8415Z" fill="white"/>
<path d="M52.83 37.1304H52V33.7704H52.76V34.0904C52.82 33.9804 52.89 33.8904 52.98 33.8104C53.08 33.7304 53.2 33.6904 53.32 33.6904C53.5 33.6904 53.67 33.7504 53.82 33.8604L53.57 34.7204L53.51 34.6704C53.36 34.5304 53.13 34.5304 52.98 34.6704C52.9 34.7804 52.85 34.9104 52.84 35.0404C52.8 35.3704 52.78 35.7104 52.79 36.0404L52.83 37.1304Z" fill="white"/>
<path d="M55.6107 38.4496C55.3607 38.4496 55.1207 38.4197 54.8907 38.3297C54.7107 38.2597 54.5607 38.1296 54.4607 37.9596C54.3607 37.7896 54.3007 37.5997 54.3107 37.3997V37.2397H54.3707L55.2207 37.3596C55.2207 37.4396 55.2507 37.5197 55.3107 37.5797C55.3907 37.6297 55.4907 37.6496 55.5807 37.6396C55.7007 37.6396 55.8207 37.6196 55.9307 37.5696C56.0007 37.5396 56.0507 37.4796 56.0707 37.4096C56.1107 37.2696 56.1307 37.1296 56.1207 36.9796V36.6696C56.0407 36.7696 55.9507 36.8596 55.8407 36.9396C55.7007 37.0296 55.5307 37.0797 55.3607 37.0797C55.0507 37.0797 54.7507 36.9196 54.5707 36.6596C54.3107 36.2796 54.1907 35.8297 54.2107 35.3797C54.1707 34.9197 54.2907 34.4696 54.5507 34.0896C54.7407 33.8096 55.0507 33.6396 55.3907 33.6396C55.5607 33.6396 55.7307 33.6896 55.8807 33.7796C55.9907 33.8596 56.0907 33.9497 56.1707 34.0597V33.7197H56.9307V36.7197C56.9507 37.0597 56.9007 37.3997 56.8007 37.7197C56.7207 37.9297 56.5707 38.1096 56.3807 38.2296C56.1507 38.3696 55.8807 38.4396 55.6107 38.4496ZM55.6107 34.4496C55.4507 34.4496 55.3107 34.5296 55.2307 34.6696C55.1107 34.8796 55.0507 35.1297 55.0707 35.3797C55.0507 35.6297 55.1007 35.8896 55.2307 36.1096C55.3007 36.2396 55.4407 36.3297 55.5907 36.3297C55.7507 36.3297 55.9007 36.2496 55.9907 36.1096C56.1207 35.8996 56.1807 35.6497 56.1607 35.3997C56.1807 35.1497 56.1207 34.8896 56.0007 34.6696C55.9107 34.5296 55.7607 34.4496 55.5907 34.4496H55.6107Z" fill="white"/>
<path d="M56.9498 11.3203H2.58984V30.8703H56.9498V11.3203Z" fill="white"/>
<path d="M56.9298 2.62012H2.58984V9.26012H56.9298V2.62012Z" fill="white"/>
<path d="M2.60156 37.1295V33.0195H7.95156V33.9795H4.75156V34.5695H7.46156V35.5295H4.75156V36.1695H8.07156V37.1295H2.60156Z" fill="white"/>
<path d="M12.6172 34.2199C12.5772 34.0799 12.4572 33.9699 12.3072 33.9399C12.1272 33.8799 11.9472 33.8599 11.7572 33.8599C11.2772 33.8599 11.0672 33.9499 11.0672 34.0999C11.0672 34.7099 14.8472 34.3299 14.8472 35.8199C14.8472 36.8199 13.5772 37.2399 11.7772 37.2399C9.97719 37.2399 8.90719 36.6099 8.86719 35.8699H10.9272C10.9872 36.0199 11.1172 36.1399 11.2772 36.1899C11.4772 36.2599 11.6872 36.2899 11.8972 36.2899C12.4272 36.2899 12.7872 36.1799 12.7872 35.9899C12.7872 35.3699 9.00719 35.7999 9.00719 34.2299C9.00719 33.3599 10.2172 32.9199 11.8572 32.9199C13.6772 32.9199 14.5072 33.4999 14.6672 34.2199H12.6172Z" fill="white"/>
<path d="M18.0719 34.8H18.9219C19.5819 34.8 19.9219 34.7 19.9219 34.41C19.9219 34.12 19.5619 33.98 19.0519 33.98H18.0519L18.0719 34.8ZM18.0719 35.7V37.13H15.9219V33H19.0019C21.1919 33 21.9119 33.38 21.9119 34.18C21.9119 34.65 21.5719 35.05 20.8119 35.18C21.5019 35.34 21.9219 35.44 21.9219 36.27C21.9219 36.8 21.9219 36.98 22.1419 36.98V37.11H20.0019C19.9219 36.88 19.8919 36.63 19.9019 36.39C19.9019 35.85 19.7519 35.68 18.7519 35.68L18.0719 35.7Z" fill="white"/>
<path d="M25.4 34V34.69H26.3C26.73 34.69 27.04 34.57 27.04 34.33C27.04 34.09 26.61 34 26.16 34H25.4ZM25.4 35.43V36.19H26.34C26.87 36.19 27.27 36.12 27.27 35.82C27.27 35.52 26.77 35.43 26.08 35.43H25.4ZM23.25 37.15V33H26.39C27.87 33 29.04 33.22 29.04 34C29.04 34.42 28.6 34.73 28.19 34.89C28.9 35.01 29.28 35.39 29.28 35.83C29.28 36.75 28.16 37.07 26.45 37.07L23.25 37.15Z" fill="white"/>
<path d="M31.8197 21.4595L31.2697 19.5195L27.6797 20.4495L28.2297 22.3895L31.8197 21.4595Z" fill="black"/>
<path d="M11.1406 15.9203L22.5406 12.5303L23.6806 16.1303L17.9706 17.8303L18.4406 19.3003L23.7106 17.7303L24.8506 21.3303L19.5806 22.8903L20.0706 24.4403L25.9706 22.6903L27.1106 26.2803L15.5306 29.7303L11.1406 15.9203Z" fill="black"/>
<path d="M32.6719 16.1998L47.1619 12.5898L48.2719 16.4498L43.6219 17.6098L46.7419 28.4398L41.5619 29.7298L38.4319 18.8898L33.7819 20.0598L32.6719 16.1998Z" fill="black"/>
<path d="M3.35938 8.21023V3.49023H4.91938V4.22023H3.99938V5.38023H4.87938V6.11023H3.99938V7.49023H4.99938V8.21023H3.35938Z" fill="black"/>
<path d="M5.10938 3.49023H5.72937L6.17937 6.92023L6.67937 3.49023H7.26937L6.51937 8.21023H5.81938L5.10938 3.49023Z" fill="black"/>
<path d="M7.55078 8.21023V3.49023H9.11078V4.22023H8.11078V5.38023H9.00078V6.11023H8.15078V7.49023H9.15078V8.21023H7.55078Z" fill="black"/>
<path d="M10.1195 8.21023H9.51953V3.49023H10.6295C10.8395 3.49023 11.0295 3.62023 11.1195 3.81023C11.2595 4.10023 11.3195 4.41023 11.2995 4.73023C11.2995 4.99023 11.2695 5.25023 11.1795 5.49023C11.1195 5.68023 10.9595 5.83023 10.7695 5.88023H10.8995C10.9695 5.90023 11.0295 5.94023 11.0795 5.99023C11.1395 6.08023 11.1895 6.17023 11.2295 6.27023C11.2795 6.43023 11.2995 6.60023 11.2895 6.77023V7.90023C11.2795 7.98023 11.2795 8.07023 11.2895 8.15023H10.6995C10.6595 8.00023 10.6395 7.85023 10.6395 7.70023V6.90023C10.6595 6.79023 10.6595 6.68023 10.6395 6.57023C10.6295 6.48023 10.5795 6.40023 10.5195 6.34023C10.4495 6.28023 10.3495 6.26023 10.2595 6.26023H10.0995L10.1195 8.21023ZM10.1195 5.53023H10.3895C10.4395 5.53023 10.4895 5.51023 10.5295 5.47023C10.5695 5.42023 10.6095 5.36023 10.6295 5.30023C10.6295 5.22023 10.6295 5.15023 10.6295 5.07023C10.6295 4.99023 10.6295 4.92023 10.6295 4.84023C10.6495 4.68023 10.6195 4.51023 10.5495 4.36023C10.5095 4.28023 10.4195 4.22023 10.3295 4.22023H10.0595L10.1195 5.53023Z" fill="black"/>
<path d="M12.2109 6.58023L11.4609 3.49023H12.1109L12.5409 5.49023L13.0009 3.49023H13.6109L12.8109 6.58023V8.21023H12.2109V6.58023Z" fill="black"/>
<path d="M14.8528 8.29016C14.6428 8.30016 14.4328 8.23016 14.2828 8.08016C14.1428 7.93016 14.0328 7.74016 13.9828 7.54016C13.9228 7.28016 13.8828 7.02016 13.8828 6.75016V4.94016C13.8828 4.68016 13.9228 4.42016 13.9828 4.17016C14.0328 3.96016 14.1428 3.78016 14.2828 3.62016C14.6128 3.34016 15.0928 3.34016 15.4228 3.62016C15.5628 3.78016 15.6728 3.96016 15.7228 4.17016C15.7828 4.42016 15.8228 4.68016 15.8228 4.94016V6.75016C15.8228 7.02016 15.7828 7.28016 15.7228 7.54016C15.6728 7.74016 15.5628 7.93016 15.4228 8.08016C15.2728 8.23016 15.0628 8.30016 14.8528 8.29016ZM14.8528 7.58016C14.9328 7.58016 15.0128 7.55016 15.0528 7.48016C15.1128 7.39016 15.1528 7.28016 15.1728 7.17016C15.1728 7.03016 15.1728 6.85016 15.2228 6.63016C15.2728 6.41016 15.2228 6.15016 15.2228 5.85016V5.07016C15.2228 4.85016 15.2228 4.67016 15.1728 4.53016C15.1528 4.42016 15.1128 4.31016 15.0528 4.22016C14.9728 4.11016 14.8128 4.09016 14.7028 4.17016C14.6828 4.18016 14.6628 4.20016 14.6528 4.22016C14.5928 4.31016 14.5528 4.42016 14.5328 4.53016V7.17016C14.5528 7.28016 14.5928 7.39016 14.6528 7.48016C14.6928 7.55016 14.7728 7.58016 14.8528 7.58016Z" fill="black"/>
<path d="M16.3203 8.21023V3.49023H17.1303L17.8903 6.76023V3.49023H18.4503V8.21023H17.6603L16.8803 4.76023V8.21023H16.3203Z" fill="black"/>
<path d="M19 8.21023V3.49023H20.57V4.22023H19.57V5.38023H20.46V6.11023H19.57V7.49023H20.57V8.21023H19Z" fill="black"/>
<path d="M21.5781 4.91H21.7981V4.39L22.3581 4V4.93H22.6481V5.5H22.3581V7.41C22.3581 7.41 22.3581 7.5 22.3581 7.54C22.3581 7.57 22.3881 7.61 22.4081 7.63C22.4481 7.64 22.4781 7.64 22.5181 7.63H22.6181V8.2H22.3281C22.2281 8.2 22.1281 8.18 22.0381 8.12C21.9681 8.07 21.9081 8 21.8681 7.92C21.8381 7.84 21.8081 7.76 21.7981 7.67C21.7981 7.6 21.7981 7.54 21.7981 7.47V5.47H21.5781V4.91Z" fill="black"/>
<path d="M23.6828 8.27965C23.3628 8.29965 23.0728 8.08965 23.0028 7.77965C22.9328 7.59965 22.8928 7.41965 22.8828 7.22965V5.86965C22.9028 5.68965 22.9428 5.50965 23.0028 5.33965C23.0528 5.20965 23.1328 5.08965 23.2428 4.99965C23.3728 4.89965 23.5228 4.85965 23.6828 4.86965C23.8428 4.86965 23.9928 4.90965 24.1228 4.99965C24.2328 5.08965 24.3228 5.21965 24.3628 5.35965C24.4228 5.52965 24.4628 5.70965 24.4728 5.88965V7.24965C24.4528 7.43965 24.4228 7.61965 24.3628 7.79965C24.3128 7.93965 24.2328 8.06965 24.1128 8.16965C23.9828 8.24965 23.8328 8.28965 23.6828 8.27965ZM23.6828 7.68965C23.6828 7.68965 23.7728 7.66965 23.8028 7.63965C23.8428 7.58965 23.8728 7.52965 23.8828 7.45965C23.8828 7.32965 23.8828 7.20965 23.8828 7.07965V5.99965C23.8828 5.88965 23.8828 5.77965 23.8828 5.66965C23.8828 5.59965 23.8528 5.52965 23.8028 5.47965C23.7728 5.43965 23.7228 5.40965 23.6728 5.40965C23.6128 5.40965 23.5628 5.43965 23.5328 5.47965C23.4928 5.53965 23.4628 5.59965 23.4528 5.66965C23.4528 5.77965 23.4528 5.88965 23.4528 5.99965V7.05965C23.4528 7.18965 23.4528 7.30965 23.4528 7.43965C23.4528 7.50965 23.4928 7.56965 23.5328 7.61965C23.5628 7.66965 23.6228 7.68965 23.6828 7.68965Z" fill="black"/>
<path d="M27.5103 3.49023V4.28023H26.8403V8.21023H26.2403V4.28023H25.5703V3.49023H27.5103Z" fill="black"/>
<path d="M27.7891 8.21023V3.49023H29.3491V4.22023H28.3491V5.38023H29.2391V6.11023H28.3491V7.49023H29.3491V8.21023H27.7891Z" fill="black"/>
<path d="M29.7695 8.21023V3.49023H31.3295V4.22023H30.3295V5.38023H31.2195V6.11023H30.3295V7.49023H31.3295V8.21023H29.7695Z" fill="black"/>
<path d="M31.7578 8.21023V3.49023H32.5678L33.3278 6.76023V3.49023H33.8878V8.21023H33.0978L32.3178 4.76023V8.21023H31.7578Z" fill="black"/>
</svg>
