<?xml version="1.0" encoding="utf-8"?>
<!-- Generator: Adobe Illustrator 24.3.0, SVG Export Plug-In . SVG Version: 6.00 Build 0)  -->
<svg version="1.1" id="Layer_1" xmlns="http://www.w3.org/2000/svg" xmlns:xlink="http://www.w3.org/1999/xlink" x="0px" y="0px"
	 viewBox="0 0 1998 1159" style="enable-background:new 0 0 1998 1159;" xml:space="preserve">
<style type="text/css">
	.st0{fill:#FFFFFF;}
</style>
<g>
	<path class="st0" d="M874.1,32.3c68.3-39.6,155.8-43,227.1-9.6c8.2,4.6,19.4,6.6,23.9,15.6c-43.6-5.8-85.6,13.2-122.7,34
		c-8.8,4.5-16.7-4.7-24.5-7.7C943.7,49.9,907.5,33,869.2,38.5C870.4,37,872.9,33.9,874.1,32.3L874.1,32.3z"/>
	<path class="st0" d="M757.2,186.4c11.3-43.6,34-84.8,66.8-115.8c15.2-4,29.7,4.8,42.5,11.9c23.8,15,43.4,35.4,64.5,53.7
		c-41.5,51.4-79.7,105.9-108.4,165.6c-13.5,29.8-27.8,62.4-20.3,95.7c-9.5-6.7-14.2-17.8-20.2-27.4
		C750.3,315.3,741.4,247.9,757.2,186.4L757.2,186.4z"/>
	<path class="st0" d="M1144.8,74.6c8.4-3.1,18.8-8.1,27.2-2.6c72.7,68.7,94.6,184.3,52.9,275.2c-8.8,17.7-16.8,37.2-32,50.4
		c1.6-10.1,3.6-20.4,1.5-30.6c-5.6-36.3-23.1-69.2-40.4-101.1c-25.7-45.8-56.4-88.5-89.1-129.5
		C1089.4,113.3,1114.2,89.3,1144.8,74.6L1144.8,74.6z"/>
	<path class="st0" d="M857.4,343.9c39.3-55.1,87.1-104.3,140.5-145.9c46.3,36.5,88.2,78.5,124.7,124.8
		c17.1,22.8,34.3,46.5,43.1,73.9c3.9,12.7,5.4,29.3-6.2,38.5c-35.2,30.2-79,50.7-125,56.9C964,503,889.3,481.8,835.4,434.9
		c-8-6.7-9.9-18.3-8-28.2C831.7,383.6,844.5,363.2,857.4,343.9L857.4,343.9z"/>
	<path class="st0" d="M1058.1,591.3c39.6-29.4,94.8-34.6,140.1-15.8c26.3,10.8,47.7,31.1,63.5,54.5c15.3,28.9,23.2,61.7,22.1,94.5
		c-0.6,43.2-16.4,88-49.5,117c-54.9,48.6-149,43.7-196.9-12.4c-33.4-38-42.7-91.9-35.1-140.8c2.8-21.7,12.1-41.6,21.3-61.2
		C1034.2,614.3,1044.5,601.1,1058.1,591.3 M1125.2,597.9c-21.8,3.8-43.9,12.9-57.4,31.3c-23.1,21.6-32.2,53.6-33.5,84.4
		c-0.5,36.1,8.7,75,35.6,100.7c36.3,37.1,101.7,38.3,140.1,3.7c20.8-18.2,33.3-44.5,37.4-71.6c6-36.4,0.2-75.9-20.9-106.7
		c-6.5-7.7-14.4-14-20.8-21.8C1183.4,599.8,1153.1,594.1,1125.2,597.9L1125.2,597.9z"/>
	<path class="st0" d="M484,571.7c13-0.1,26.1-0.1,39.1-0.2c27.8,38.2,58.3,74.3,84.6,113.5c27.1-37.6,57.5-72.9,82.5-112
		c13.7-3.6,28.3-1.1,42.3-1.3c-33.9,47.6-69.8,93.7-103.6,141.5c11.8,13.5,21.5,28.7,31.6,43.4c27.5,37.2,54.9,74.5,82.3,111.7
		c-13.3-0.1-26.5-0.1-39.8-0.1c-31.1-41.9-61.7-84.1-93.8-125.2c-8.9,5.8-12.6,17.2-19.9,24.8c-9.9,9.1-16.8,20.9-25,31.4
		c-16.8,23.1-34,45.8-50.8,68.9c-13.3,0-26.7,0.1-40,0.2c31.9-42.6,63-85.8,94.8-128.5c6.8-8.6,9.6-20.6,19.5-26.6
		c-11-12.8-20.9-26.4-30-40.6c-11-14.7-23.2-28.5-34.2-43.2C514.1,608,496.6,591.3,484,571.7L484,571.7z"/>
	<path class="st0" d="M758.3,571.5c41,0.1,82-0.1,123,0c19.7,0.2,40.4,2.7,57.5,13.3c23.6,13.7,39.2,41,37.2,68.4
		c0.3,24.1-14.1,46.1-34.4,58.3c16.9,9.4,32.7,23.1,39,41.9c12.3,32.3,2.1,72.8-26.3,93.4c-21.9,16.3-50,21.4-76.7,21.4
		c-39.7-0.1-79.5,0.1-119.2,0c-1.1-46.3,0.1-92.7-0.1-139c-20.8,0.1-41.6,0-62.4,0c7.2-10.1,14.5-20,22-29.9
		c13.5-0.1,26.9-0.3,40.4-0.4C756.8,656.5,758.5,614,758.3,571.5 M791.7,603.4c0.5,31.9,0.3,63.7,0.1,95.6c31-0.2,62.1,0.5,93.1,0
		c15.8-0.5,32.5-4.6,44.1-16c18.1-17.3,16.1-49.4-1.1-66.5c-15-11.9-35.1-13.6-53.5-13.6C846.8,603.2,819.2,602.4,791.7,603.4
		 M791.8,729.6c0.2,35.8-0.4,71.5,0.3,107.3c30.8-0.3,61.6,0.2,92.4-0.2c17.6-1,36.4-4.3,50.2-16.1c17.8-15.5,21.3-43.7,10.8-64.3
		c-11.7-19.3-35.8-25.4-57-26.5C856.4,729.2,824.1,729.8,791.8,729.6L791.8,729.6z"/>
	<path class="st0" d="M1262.8,571.5c13-0.1,26,0,39-0.1c28.7,38.1,56.8,76.5,85.7,114.5c26.8-38.6,56-75.5,83.6-113.4
		c12.9-2.1,26.2-0.6,39.2-0.9c-12,20.1-28.2,37.3-40.1,57.4c-19.1,24.8-37.4,50.2-56.2,75.2c-2.5,3.4-5.6,7.5-3.7,11.9
		c36.6,51,73.9,101.6,111,152.3c-13.3,0.1-26.5,0-39.8-0.2c-31.1-42.7-63-84.8-94.3-127.2c-32,42.4-63.5,85.2-95.7,127.6
		c-13.1-0.3-26.2-0.2-39.3-0.1c38.6-51.4,75.9-103.7,114.4-155.2C1332.3,665.7,1297.3,618.8,1262.8,571.5L1262.8,571.5z"/>
	<path class="st0" d="M41,957.8c33-24.2,81.5-23.8,114.2,0.7c17.9,13.5,28.6,34.5,33.4,56c-8.6,0.2-17.3,0.4-25.9,0.6
		c-4.2-10.9-7.4-22.7-15.1-31.8c-29.5-33.9-94.8-25.7-111.6,17.2c-15.4,30-17.3,67.2-2.9,97.9c20.3,41.6,83.9,51.2,115.6,17.4
		c13.2-11.8,16.4-30.1,18.5-46.9c-23.4,0.1-46.8-0.1-70.2,0.2c0-7.8,0.1-15.7,0.1-23.4c31.1-0.1,62.2-0.2,93.3,0.1
		c-0.2,36.4,0,72.8,0.1,109.1h-24.4c0.2-8.3,0.4-16.6,0.8-24.9c-14.3,17.2-35.9,28-58.1,29.7H85.2c-21.3-2.9-42.7-11.4-57.6-27.4
		C13,1116.4,4.2,1096,0,1075.1v-48.2C5.2,1000.1,18.4,973.8,41,957.8L41,957.8z"/>
	<path class="st0" d="M865.7,965.6c13.7-17.7,37-24.7,58.6-25.5c25-0.7,52.8,5,69.8,24.8c12,13,15,31.1,16.1,48
		c-8,0.1-16,0.1-23.9,0.2c-1.6-9.9-1.8-20.7-7.7-29.2c-8.1-12.3-22.6-18.4-36.7-20.5c-17.2-2.5-36.1-0.9-50.6,9.5
		c-12,8.5-15.8,26.1-9.3,39.1c4.6,7.6,12.8,12,20.9,15.2c25.7,9.5,54.1,9.8,79.2,21.2c11.7,5.2,22.4,13.7,27.8,25.5
		c9,20.9,5.1,47.6-11.5,63.7c-15.3,15.3-37.4,20.4-58.3,22.1h-3.3c-25.4-1.4-53.2-6.7-71-26.6c-14-14.9-17.2-36.2-16.8-55.9h24
		c0.2,11.6-0.4,24.2,6,34.4c9.3,15.7,28,22.3,45.2,24.4c19.1,2.3,40.8,0.3,55.7-13.1c15-13,14.6-41.4-3.7-51.2
		c-31.8-17.3-71.7-12.6-102-33.3C851.2,1022.3,849,986.9,865.7,965.6L865.7,965.6z"/>
	<path class="st0" d="M1641.3,974.2c33.5-41.9,102.4-45.7,141.4-9.6c39.9,36.9,44.5,102.2,18.3,148.2c-15.2,27-44.3,43.3-74.6,47
		h-12.3c-47.9,1-89.7-39.5-95.9-85.9C1612.7,1039.4,1618.4,1001.5,1641.3,974.2 M1696,965.4c-21.9,6-39.8,23.2-47.8,44.4
		c-11.7,30.6-10.3,67.7,8.5,95.2c22.5,33.8,74.9,42,106,15.4c36.8-31.3,39-91.8,11.7-130C1756.9,966.7,1724,957.3,1696,965.4
		L1696,965.4z"/>
	<path class="st0" d="M1854.4,959.1c20.2-18.4,49.9-21.4,75.9-17.4c21,2.9,42.2,13.4,52.8,32.5c7.1,11.7,8.6,25.7,9.4,39.1
		c-8,0-16.1,0-24,0c-0.8-12-2.3-24.9-11.1-33.8c-15.8-16.9-41.7-19.2-63.2-15.3c-15.9,2.7-32,14.4-32.7,31.7
		c-1.8,12.7,6.9,24.4,18.3,29.1c26.9,11.3,57,11.8,84.1,22.7c14.2,6.4,26.9,18.3,31,33.8c5.1,18.2,1.6,39.4-11.3,53.6
		c-16.2,19.7-43.4,25.5-67.8,24.4c-26.5-0.5-55.6-8.8-71.7-31.3c-10.9-14.6-13.2-33.3-12.8-51c8.2,0,16.4,0,24.7,0
		c0.3,12.1-1.1,25.6,6.7,35.9c8.4,13.3,24,19.6,39,22c20.2,3.8,43.5,2.1,59.9-11.5c15.5-13,15.4-42.5-3.9-51.9
		c-31.5-16.1-70.1-12.4-100-32.2C1831.2,1021.9,1831.2,979.2,1854.4,959.1L1854.4,959.1z"/>
	<path class="st0" d="M264.2,999.5c9.9-17.6,14.9-37.4,24.3-55.3c7,0.4,13.9,0.8,20.9,1.2c18.5,49.4,40.7,97.2,58.7,146.7
		c8.5,17.2,12,36.4,21.7,53c1,3.2,1.9,6.5,2.9,9.8c-10.1-0.1-20.9,2.1-30.4-2.4c-3-21.8-15.7-40.8-22.8-61.4
		c-28,0.1-56.1,0.5-84.2-0.3c-9.8,21-16.4,43.4-26.7,64.2c-8.7,0-17.4,0.1-26,0.1c5.2-18.3,14.2-35.1,20.8-53
		C237.7,1068.2,248.7,1032.9,264.2,999.5 M264.4,1068.3c22.5-0.2,45.1,0,67.6,0.2c-8.4-21.8-17.1-43.5-25.8-65.1
		c-2.2-8.3-4.4-16.6-7.1-24.7C286.7,1008.1,275.7,1038.3,264.4,1068.3L264.4,1068.3z"/>
	<path class="st0" d="M405,945c9-0.3,18.1-0.4,27.1-0.5c25.4,57.8,49.8,116.1,74.3,174.3c17.1-40.1,34.1-80.3,49.4-121
		c10.3-16.3,15.8-35,23.4-52.6c9.3-0.4,18.6-0.6,28-0.6c0.4,70,0,140,0.9,209.9c-8.5,0.4-17,0.4-25.5,0.2
		c0.1-52.6-0.1-105.3,0.1-157.9c-16.1,34.5-28.5,70.6-44.1,105.4c-8.2,17.1-12.8,35.6-19.6,53.2c-7.4-0.2-14.9-0.4-22.3-0.5
		c-23.2-52.3-44.5-105.6-66.8-158.3c0.1,52.6-0.4,105.2,0.2,157.8c-8.7,0.2-17.4,0.5-26,0.8c1.5-52.1-0.2-104.2,0.4-156.3
		C405.4,981,405.2,963,405,945L405,945z"/>
	<path class="st0" d="M632.5,945c49.2-0.4,98.4-0.4,147.6-0.1c0,7,0,14,0,21c-41.3,0.2-82.5-0.1-123.8,0.1c0.2,23.3,0.2,46.6,0,70
		c38.8,0.1,77.5-0.4,116.3,0.3c-0.1,6.8-0.2,13.6-0.3,20.5c-38.5,0.2-77.1-0.1-115.6,0.2c-0.5,25.6-0.3,51.2,0,76.8
		c41.7,0.2,83.3,0,125,0.1c-0.1,6.9-0.3,13.9-0.5,20.8c-49.6,0.1-99.2,0-148.8,0.1C632.4,1084.8,632.7,1014.9,632.5,945L632.5,945z"
		/>
	<path class="st0" d="M1013.4,944.8c54.5,0.1,109-0.1,163.6,0.1c-0.1,7.6-0.1,15.2-0.2,22.9c-23.1-0.1-46.2-0.1-69.3,0
		c0.2,62.3-0.1,124.6,0.4,186.9c-8.6,0.1-17.1,0.1-25.6,0.1c1.1-62.2-0.4-124.5,0.6-186.8c-23.2-0.5-46.4-0.2-69.6-0.2
		C1013.2,960.1,1013.3,952.4,1013.4,944.8L1013.4,944.8z"/>
	<path class="st0" d="M1191.3,944.9c8.1,0,16.3,0,24.4,0.2c-0.6,40.6-0.1,81.2-0.2,121.9c-0.2,14.7,2.6,29.5,8,43.2
		c8.2,17.4,27.8,26.4,46.4,26.7c16.7,0.5,35.4-3,47-16.2c11.7-13.9,14.2-32.9,14.4-50.5c-0.1-41.8,0-83.6-0.1-125.4h24.1
		c0.1,41.9,0.2,83.9,0,125.9c-0.2,24.3-5,51-23.6,68.3c-20.7,19.9-51.9,22.1-79,19.1c-14.6-1.2-26.9-9.5-39.5-16.2
		c-8.3-13.3-16.9-27-19.6-42.7c-2.1-13.1-2.4-26.4-2.3-39.7C1192,1021.4,1191.8,983.2,1191.3,944.9L1191.3,944.9z"/>
	<path class="st0" d="M1381,944.7c27.2,0.8,54.4-0.3,81.6,0.7c27.2,1.3,55.4,13.7,70.1,37.5c17.3,27.7,20,62.3,14.9,94
		c-4.5,27.5-20.5,55.4-46.9,67c-37.4,18-79.9,8.2-119.7,10.7C1381.1,1084.6,1380.9,1014.6,1381,944.7 M1404.9,967.5
		c0,54.9,0.3,109.8,0,164.7c28.4-1.7,59.2,5.1,85.4-9c26-14.3,35.4-46.2,34.9-74.2c0.2-26.2-6.2-56.9-30.4-71.4
		C1467.6,961.8,1434.9,968.8,1404.9,967.5L1404.9,967.5z"/>
	<path class="st0" d="M1570.6,944.8c8.4,0,16.8,0,25.2,0.1c-0.4,69.9,0.6,139.8-0.3,209.8c-8.4,0-16.8,0-25.2-0.2
		C1570.7,1084.6,1570.4,1014.7,1570.6,944.8L1570.6,944.8z"/>
</g>
</svg>
