<svg width="516" height="78" viewBox="0 0 516 78" fill="none" xmlns="http://www.w3.org/2000/svg">
<g clip-path="url(#clip0_1134_2360)">
<path d="M36.6245 72.796L0 77.2447L26.6579 37.7234L56.7185 42.9079L36.6245 72.796ZM41.671 15.5257L36.544 23.1012H138.715C144.221 23.097 149.641 21.7391 154.498 19.1471C159.355 16.5552 163.5 12.8087 166.569 8.23761L171.684 0.662112H69.5244C64.0241 0.660022 58.6076 2.00913 53.7508 4.59083C48.8941 7.17254 44.7459 10.9078 41.671 15.4682V15.5257ZM98.2055 27.9638L79.0311 56.4035L100.367 53.7825L117.782 27.9638H98.2055ZM123.702 27.9638L106.827 52.9894L120.553 51.2995C122.936 51.0107 125.23 50.215 127.28 48.9658C129.33 47.7167 131.089 46.043 132.439 44.0574L143.268 27.9638H123.725H123.702ZM6.5524 27.9638L5.74772 29.1133L65.0067 39.4592L51.2122 59.8751L72.4787 57.2657L92.2624 27.9638H6.5524Z" fill="white"/>
<path d="M333.76 0.685377H311.16L307.907 5.52496H322.725L307.907 23.09H333.37V18.2619H318.931L333.76 0.685377ZM194.47 5.52496H211.253L214.507 0.685377H188.711V23.0785H194.459V16.0778H210.368V11.2152H194.459V5.52496H194.47ZM356.671 14.0431L361.269 4.96168L365.867 14.0431H356.671ZM370.339 23.09H376.707L365.12 0.685377H357.349L345.796 23.0785H352.13L354.533 18.3079H367.936L370.339 23.09ZM238.705 18.5723C235.727 18.5723 233.612 18.0435 232.313 16.9629C231.631 16.3126 231.105 15.5171 230.773 14.6356C230.44 13.754 230.311 12.8089 230.393 11.8704C230.31 10.9353 230.439 9.99349 230.772 9.11552C231.104 8.23755 231.631 7.44625 232.313 6.80095C233.612 5.74337 235.762 5.22608 238.705 5.22608C241.647 5.22608 243.786 5.75487 245.085 6.81245C245.768 7.4544 246.297 8.24318 246.632 9.11934C246.966 9.9955 247.098 10.9362 247.016 11.8704C247.099 12.8147 246.965 13.7655 246.624 14.6501C246.283 15.5347 245.745 16.3297 245.05 16.9744C243.774 18.055 241.659 18.5838 238.705 18.5838V18.5723ZM238.705 23.4234C243.517 23.4234 247.066 22.4501 249.349 20.5035C251.648 18.5378 252.798 15.6754 252.798 11.8704C252.798 8.06545 251.648 5.23757 249.349 3.29484C247.05 1.35211 243.521 0.375 238.705 0.375C233.888 0.375 230.313 1.34062 228.037 3.27185C225.761 5.20308 224.588 8.05395 224.588 11.8589C224.588 15.6639 225.738 18.5608 228.037 20.5035C230.336 22.4462 233.865 23.3659 238.705 23.3659V23.4234ZM294.837 23.044H286.974L273.697 12.2383H283.18C285.135 12.2383 287.445 11.9739 287.445 9.03107V8.74368C287.445 5.81234 285.146 5.53645 283.18 5.53645H272.835V23.113H267.087V0.685377H284.79C289.457 0.685377 293.25 3.82363 293.25 8.49078C293.246 10.4604 292.495 12.3552 291.149 13.7931C289.803 15.2309 287.962 16.1049 285.997 16.2387L294.837 23.044Z" fill="white"/>
<path d="M374.488 52.6457H365.913C365.342 52.6755 364.772 52.589 364.236 52.3913C363.701 52.1936 363.211 51.8889 362.797 51.4959C362.382 51.1028 362.053 50.6295 361.827 50.1048C361.602 49.5802 361.485 49.0151 361.485 48.4441C361.485 47.8731 361.602 47.308 361.827 46.7833C362.053 46.2587 362.382 45.7854 362.797 45.3923C363.211 44.9992 363.701 44.6946 364.236 44.4969C364.772 44.2992 365.342 44.2127 365.913 44.2425H383.064V38.3913H365.947C364.628 38.3913 363.321 38.6512 362.102 39.1561C360.883 39.661 359.776 40.4011 358.843 41.334C357.91 42.267 357.17 43.3746 356.665 44.5935C356.16 45.8125 355.9 47.1189 355.9 48.4383C355.9 49.7577 356.16 51.0642 356.665 52.2832C357.17 53.5021 357.91 54.6097 358.843 55.5426C359.776 56.4756 360.883 57.2157 362.102 57.7206C363.321 58.2255 364.628 58.4854 365.947 58.4854H374.523C375.639 58.4854 376.709 58.9286 377.498 59.7177C378.287 60.5067 378.73 61.5768 378.73 62.6927C378.73 63.8085 378.287 64.8787 377.498 65.6677C376.709 66.4567 375.639 66.9 374.523 66.9H355.613L359.544 72.7972H374.488C377.153 72.7972 379.708 71.7387 381.593 69.8545C383.477 67.9703 384.535 65.4148 384.535 62.7502C384.535 60.0855 383.477 57.53 381.593 55.6458C379.708 53.7617 377.153 52.7031 374.488 52.7031V52.6457ZM188.71 64.1986V72.7972H194.458L188.71 64.1986ZM188.71 58.9682L198.033 72.7627H201.551L188.688 53.7032V58.9337L188.71 58.9682ZM188.71 48.5418L205.08 72.7972L215.587 57.2209V72.7972H221.426V38.0465L205.08 62.2788L188.722 38.0465V48.5073L188.71 48.5418ZM486.109 38.4258L490.04 44.277H497.961V72.7972H503.8V44.2195H511.721L515.652 38.3798H486.109V38.4258ZM406.94 55.3011H395.444V44.2195H406.94C408.409 44.2195 409.819 44.8033 410.858 45.8424C411.897 46.8815 412.481 48.2908 412.481 49.7603C412.481 51.2298 411.897 52.6392 410.858 53.6783C409.819 54.7174 408.409 55.3011 406.94 55.3011ZM406.94 38.3913H389.697V72.7972H395.444V61.1408H406.94C408.464 61.1893 409.982 60.9309 411.405 60.3811C412.827 59.8313 414.125 59.0012 415.22 57.9401C416.315 56.8791 417.186 55.6088 417.781 54.2046C418.376 52.8004 418.682 51.291 418.682 49.7661C418.682 48.2411 418.376 46.7317 417.781 45.3275C417.186 43.9233 416.315 42.653 415.22 41.592C414.125 40.531 412.827 39.7009 411.405 39.151C409.982 38.6012 408.464 38.3429 406.94 38.3913ZM260.511 38.3913L264.442 44.2425H272.443V72.7972H278.191V44.2195H286.1L290.043 38.3798H260.534L260.511 38.3913ZM330.15 55.3011H326.633L338.381 72.7052H341.91L330.15 55.3011ZM341.14 55.3011H333.691L345.451 72.7052H352.474L344.347 60.658C346.999 59.9021 349.287 58.2101 350.786 55.8957C352.285 53.5813 352.894 50.8017 352.499 48.0726C352.105 45.3435 350.734 42.85 348.641 41.0549C346.548 39.2598 343.874 38.2848 341.117 38.3109H322.253L326.184 44.1505H341.128C342.559 44.2156 343.909 44.8296 344.898 45.8648C345.887 46.9 346.439 48.2767 346.439 49.7086C346.439 51.1404 345.887 52.5171 344.898 53.5524C343.909 54.5876 342.559 55.2016 341.128 55.2666L341.14 55.3011ZM463.13 55.2666H459.612L471.372 72.6707H474.889L463.13 55.2666ZM474.085 55.2666H466.716L478.464 72.6707H485.5L477.361 60.6235C479.988 59.8435 482.246 58.1426 483.72 55.8328C485.195 53.523 485.787 50.7591 485.389 48.0478C484.991 45.3365 483.629 42.8596 481.553 41.0712C479.476 39.2828 476.825 38.3028 474.085 38.3109H455.221L459.164 44.1505H474.108C475.538 44.2156 476.888 44.8296 477.877 45.8648C478.867 46.9 479.419 48.2767 479.419 49.7086C479.419 51.1404 478.867 52.5171 477.877 53.5524C476.888 54.5876 475.538 55.2016 474.108 55.2666H474.085ZM438.782 43.8746C436.48 43.8724 434.229 44.5526 432.313 45.8292C430.397 47.1059 428.903 48.9217 428.019 51.0473C427.135 53.1729 426.9 55.5129 427.346 57.7716C427.791 60.0303 428.896 62.1064 430.52 63.7374C432.145 65.3685 434.217 66.4814 436.474 66.9356C438.731 67.3897 441.071 67.1647 443.201 66.289C445.33 65.4132 447.151 63.926 448.436 62.0153C449.72 60.1046 450.409 57.8562 450.416 55.554C450.416 52.4656 449.189 49.5037 447.005 47.3198C444.821 45.136 441.859 43.9091 438.771 43.9091L438.782 43.8746ZM456.29 55.554C456.29 59.0217 455.261 62.4115 453.335 65.2947C451.408 68.1778 448.669 70.4247 445.465 71.7512C442.261 73.0777 438.736 73.4242 435.335 72.7469C431.934 72.0695 428.81 70.3988 426.359 67.9459C423.908 65.4931 422.239 62.3684 421.564 58.967C420.889 55.5657 421.238 52.0405 422.566 48.8374C423.895 45.6343 426.144 42.8972 429.028 40.9723C431.913 39.0474 435.303 38.0212 438.771 38.0235C441.072 38.0235 443.351 38.477 445.478 39.3581C447.604 40.2393 449.536 41.5307 451.163 43.1587C452.79 44.7868 454.08 46.7194 454.96 48.8462C455.839 50.9731 456.291 53.2524 456.29 55.554ZM305.78 43.9091C303.478 43.9137 301.229 44.6005 299.317 45.8828C297.405 47.1651 295.916 48.9854 295.038 51.1136C294.16 53.2418 293.933 55.5825 294.385 57.8399C294.837 60.0972 295.947 62.17 297.577 63.7963C299.206 65.4225 301.281 66.5293 303.54 66.9768C305.798 67.4243 308.138 67.1923 310.265 66.3103C312.391 65.4282 314.208 63.9357 315.487 62.0212C316.765 60.1067 317.448 57.8562 317.448 55.554C317.448 54.0229 317.146 52.5067 316.559 51.0924C315.973 49.6781 315.113 48.3933 314.029 47.3117C312.945 46.2301 311.659 45.3728 310.243 44.7889C308.828 44.2051 307.311 43.9061 305.78 43.9091ZM323.322 55.554C323.32 59.0175 322.291 62.4026 320.366 65.2815C318.44 68.1605 315.705 70.4042 312.505 71.7291C309.305 73.054 305.784 73.4006 302.387 72.7252C298.99 72.0498 295.869 70.3826 293.419 67.9344C290.969 65.4862 289.3 62.3667 288.623 58.9702C287.945 55.5736 288.289 52.0524 289.612 48.8515C290.935 45.6506 293.177 42.9136 296.054 40.9863C298.932 39.0591 302.317 38.028 305.78 38.0235C308.084 38.0189 310.366 38.4692 312.496 39.3484C314.625 40.2277 316.56 41.5186 318.19 43.1472C319.82 44.7758 321.112 46.7101 321.993 48.8391C322.873 50.9681 323.325 53.2501 323.322 55.554ZM244.854 43.9091C242.549 43.8978 240.292 44.571 238.369 45.8436C236.447 47.1163 234.945 48.9309 234.055 51.0577C233.165 53.1845 232.926 55.5277 233.369 57.7904C233.811 60.053 234.916 62.1333 236.542 63.7677C238.168 65.402 240.243 66.5168 242.504 66.9708C244.764 67.4248 247.108 67.1975 249.24 66.3179C251.371 65.4382 253.193 63.9457 254.475 62.0295C255.757 60.1133 256.442 57.8596 256.442 55.554C256.442 52.4755 255.223 49.5223 253.051 47.3401C250.88 45.1579 247.933 43.9243 244.854 43.9091ZM262.293 55.554C262.293 59.0212 261.265 62.4106 259.338 65.2935C257.412 68.1763 254.674 70.4233 251.471 71.7501C248.268 73.077 244.743 73.4241 241.342 72.7477C237.942 72.0713 234.818 70.4017 232.366 67.95C229.915 65.4983 228.245 62.3746 227.569 58.9741C226.892 55.5735 227.239 52.0487 228.566 48.8454C229.893 45.6421 232.14 42.9042 235.023 40.9779C237.906 39.0516 241.295 38.0235 244.762 38.0235C247.065 38.022 249.345 38.4744 251.473 39.3548C253.6 40.2353 255.533 41.5265 257.162 43.1547C258.79 44.7828 260.081 46.716 260.961 48.8436C261.842 50.9712 262.294 53.2514 262.293 55.554Z" fill="white"/>
</g>
<defs>
<clipPath id="clip0_1134_2360">
<rect width="515.651" height="76.87" fill="white" transform="translate(0 0.375)"/>
</clipPath>
</defs>
</svg>
