<svg width="43" height="43" viewBox="0 0 43 43" fill="none" xmlns="http://www.w3.org/2000/svg">
<path fill-rule="evenodd" clip-rule="evenodd" d="M35.3322 31.6608L34.2188 34.7455V34.7453H34.2135H34.2115H34.2089H34.2064H34.2049C33.4953 34.7453 6.42444 34.7454 6.34805 34.7229C5.1146 34.3594 4.68849 32.9801 4.99964 32.0391C6.02191 28.9465 7.52305 24.399 8.97718 19.9939L8.97882 19.9889L8.97893 19.9886L8.97979 19.986C11.1884 13.2953 13.2878 6.93537 13.4353 6.50332C13.6567 5.85476 13.987 5.17992 15.2136 5.17992C15.6962 5.17542 20.3223 5.17889 21.2609 5.17959L21.4256 5.17971C21.6217 4.60994 21.8183 4.04343 22.015 3.47683L22.0152 3.47618L22.0153 3.47598C22.3011 2.65272 22.587 1.82924 22.8712 0.995242H21.3559L21.7053 0.0365856C21.5879 0.0365856 17.0192 0.0162987 14.8226 0.000152077C13.7897 -0.00730023 12.8204 0.25912 11.9201 0.803552C10.6044 1.59929 9.67514 2.76806 9.15509 4.31607C8.99866 4.78205 0.262414 31.2934 0.186472 31.6194C-0.00347954 32.4357 -0.0476058 33.2656 0.0508734 34.1031C0.246696 35.7681 0.915976 37.1619 2.07898 38.2568C3.21641 39.3276 4.55289 39.8971 6.04864 39.9033C11.8496 39.9273 32.4218 39.9476 32.5161 39.9476C32.4316 40.2302 31.6296 42.9941 31.6409 43.0004L38.8864 37.314L35.3322 31.6608ZM19.3971 32.1526C20.073 32.5176 20.8002 32.6389 21.5458 32.6414V32.6412C22.1407 32.6431 23.5267 32.6372 25.0354 32.6307L25.0372 32.6307L25.041 32.6307H25.0416H25.0426L25.0444 32.6307C27.0707 32.622 29.3157 32.6124 30.1614 32.6196C30.5754 32.6232 30.9638 32.5375 31.3375 32.3609C32.445 31.8376 33.2879 31.0143 33.7091 29.7528C34.7477 26.6421 35.7835 23.5302 36.8193 20.4184L36.8208 20.4138L36.8223 20.4093L36.8233 20.4063L36.8238 20.4048C37.6362 17.9642 38.4485 15.5236 39.2622 13.0836C39.488 12.4065 39.5987 11.7137 39.5645 10.9949C39.5239 10.1458 39.263 9.39289 38.7244 8.76813C38.2041 8.16491 37.5506 7.82894 36.822 7.64449C36.326 7.51904 35.823 7.51139 35.3172 7.51283C32.5084 7.52111 29.6995 7.52526 26.8908 7.52463C26.6082 7.52463 26.3387 7.57245 26.0751 7.67285L26.0608 7.67831C25.9168 7.73322 25.7719 7.78848 25.635 7.86082C24.5873 8.41394 23.8085 9.24032 23.4035 10.4588C22.5815 12.931 21.7584 15.4028 20.9353 17.8746L20.9324 17.8833L20.9312 17.8868L20.9295 17.892L20.926 17.9024C19.8932 21.0039 18.8604 24.1054 17.8299 27.2078C17.6081 27.8754 17.5191 28.5691 17.5824 29.2827C17.7002 30.609 18.3079 31.5647 19.3971 32.1526ZM29.8699 27.0985C29.6989 27.6183 29.3902 27.8518 28.8812 27.8518C28.0291 27.852 24.6214 27.852 23.7693 27.8518C23.0518 27.8516 22.6255 27.1985 22.8624 26.4496C23.0053 25.9977 24.2689 22.1554 25.4816 18.4676L25.4831 18.4632L25.485 18.4572C26.1591 16.4073 26.8172 14.4062 27.258 13.0629C27.3875 12.6684 27.6151 12.4034 27.9947 12.3115C28.0676 12.2937 28.1445 12.2912 28.2197 12.2912C29.9425 12.2902 31.6655 12.2902 33.3883 12.2906C34.0411 12.2908 34.4667 12.8808 34.3053 13.5747C34.2645 13.7504 32.3541 19.5527 30.8686 24.0645L30.8686 24.0647L30.8641 24.0781C30.4944 25.201 30.1512 26.2434 29.8699 27.0985ZM8.85938 32.6025L15.3651 13.0607C15.2655 13.0602 14.9468 13.0603 14.5669 13.0603C13.8132 13.0603 12.8186 13.0604 12.8165 13.0566C12.8135 13.0508 13.8731 9.7345 13.8816 9.71504C13.9742 9.70191 14.0657 9.69073 14.1562 9.67967L14.1563 9.67967L14.1564 9.67965C14.354 9.65553 14.5469 9.63196 14.7365 9.5898C15.3706 9.44883 15.951 9.17496 16.4383 8.69553C16.7521 8.38688 16.9979 8.02151 17.1718 7.60211C17.2216 7.48184 17.2852 7.44706 17.4011 7.44727C17.8041 7.44836 18.328 7.4496 18.8752 7.4509H18.8755L18.8773 7.45091C20.2922 7.45426 21.8623 7.45798 21.902 7.46052C21.8899 7.62385 15.8734 25.8288 13.5883 32.676L8.85956 32.6025H8.85938ZM25.3032 0.770972H26.9865C26.9814 0.786739 26.9356 0.920061 26.8647 1.1264L26.8645 1.12706L26.8642 1.12804C26.5644 2.00094 25.8183 4.17365 25.8 4.29343C25.7144 4.85152 25.9967 5.25788 26.5092 5.32412C26.5717 5.3322 29.1038 5.32826 29.1949 5.30508C29.9143 5.1225 30.4319 4.67329 30.7022 3.9117C31.1216 2.72969 31.9807 0.261524 31.9975 0.198593H30.4126C30.4065 0.214505 30.307 0.496337 30.1647 0.899911C29.7958 1.94548 29.1386 3.80819 29.0689 3.98085C28.8475 4.5288 28.3777 4.82171 27.8502 4.75257C27.5639 4.7149 27.4056 4.51596 27.4345 4.20317C27.4446 4.09501 28.2958 1.63902 28.6477 0.62371L28.6482 0.622138C28.7345 0.37334 28.7906 0.211424 28.7968 0.192383H22.2937L22.1026 0.751306H23.7026L22.0938 5.3233H23.6982C23.9654 4.56461 25.0341 1.53318 25.3032 0.770972ZM34.2994 5.3351C34.4644 4.86705 34.8501 3.74299 34.8624 3.61506C34.8895 3.33332 34.7643 3.15488 34.513 3.08822L34.5023 3.08536C34.4569 3.07315 34.4104 3.06066 34.3644 3.06028C34.155 3.05829 33.9457 3.05856 33.7297 3.05884L33.4968 3.05904L32.6921 5.33468H31.1172C31.1276 5.18005 32.7838 0.439137 32.9125 0.192383H33.0572L33.813 0.193254C34.6528 0.194148 35.4926 0.195042 36.3324 0.198386C36.4514 0.1988 36.5728 0.209772 36.6887 0.238132C37.1403 0.34826 37.3915 0.763519 37.304 1.25868C37.2013 1.83914 36.9345 2.30822 36.4872 2.64833C36.464 2.66602 36.4407 2.6835 36.4173 2.70098L36.4173 2.70102C36.3939 2.71851 36.3706 2.736 36.3474 2.7537C36.3445 2.75595 36.3425 2.75949 36.3387 2.76609C36.3362 2.77042 36.333 2.77606 36.3283 2.78351C36.4629 3.00066 36.5245 3.24948 36.4887 3.51694C36.4697 3.65895 36.1035 4.7739 35.9557 5.19185C35.8982 5.35476 35.897 5.3558 35.7391 5.35559C35.3162 5.35518 34.3738 5.34255 34.2996 5.3351H34.2994ZM34.0911 1.36737L34.091 1.36779L34.091 1.36785C33.9605 1.73347 33.8302 2.09858 33.7098 2.47879C33.8059 2.47879 33.8989 2.4793 33.9897 2.47979C34.1836 2.48084 34.3678 2.48185 34.5518 2.47776C35.102 2.46554 35.5811 1.99895 35.6614 1.404C35.7101 1.04215 35.5535 0.803265 35.2219 0.781322C35.0144 0.767609 34.8059 0.77085 34.5918 0.774176C34.4957 0.77567 34.3984 0.777182 34.2996 0.777182H34.2994C34.2309 0.975656 34.161 1.17159 34.0911 1.36737ZM40.0154 5.35674H41.5797V5.35654C41.5967 5.323 42.4933 2.80661 42.922 1.56228C42.9803 1.39295 43.0019 1.19836 42.9989 1.01619C42.9921 0.604244 42.7552 0.31526 42.3859 0.240323C42.2626 0.215275 42.1353 0.202855 42.0099 0.202441C40.9373 0.198508 38.6677 0.197266 38.5903 0.197266C38.185 1.34324 37.7814 2.48506 37.3757 3.63272C37.1743 4.20244 36.9724 4.7736 36.7695 5.34743H38.3727C38.3812 5.32426 38.4647 5.08806 38.5883 4.73792C38.8768 3.92126 39.3842 2.48478 39.6714 1.68586C39.7349 1.5097 39.8231 1.33126 39.9392 1.19318C40.2328 0.843753 40.6036 0.698847 41.0354 0.816635C41.2681 0.880186 41.3912 1.09258 41.3532 1.3503C41.3452 1.40405 41.1263 2.03752 40.8677 2.7856C40.4778 3.91337 39.9979 5.30161 40.0154 5.35674Z" fill="white"/>
</svg>
