<svg width="34" height="40" viewBox="0 0 34 40" fill="none" xmlns="http://www.w3.org/2000/svg">
<path fill-rule="evenodd" clip-rule="evenodd" d="M20.8016 40.0002H13.2163L13.1784 39.9966L13.1462 39.9932L13.1305 39.9916C13.0692 39.9849 13.0079 39.9783 12.9466 39.9773C12.5161 39.9698 12.0857 39.9638 11.6552 39.9578H11.6548L11.6544 39.9578L11.654 39.9578L11.6536 39.9578C10.849 39.9465 10.0445 39.9353 9.24034 39.9146C7.55462 39.8712 5.86891 39.8158 4.18319 39.7603L3.88673 39.7506C3.66672 39.7434 3.44513 39.7228 3.22828 39.6848C1.5849 39.3978 0.274292 37.8679 0.230132 36.193C0.222861 35.9197 0.214839 35.6464 0.206818 35.3732C0.193091 34.9056 0.179367 34.4382 0.169412 33.9704C0.161729 33.6134 0.153841 33.2565 0.145955 32.8996L0.145952 32.8995C0.115798 31.535 0.0856502 30.1708 0.0668983 28.8061C0.0361441 26.5596 0.0101212 24.3132 0.0030241 22.0668C-0.00407304 19.7973 0.000658385 17.5279 0.0243155 15.2593C0.0491442 12.9493 0.0896729 10.6394 0.130202 8.32948L0.155218 6.89573C0.170473 6.02299 0.194655 5.15081 0.218846 4.27825L0.232498 3.78369C0.236441 3.6418 0.249847 3.49832 0.275081 3.35881C0.471435 2.2673 1.04157 1.4231 1.9642 0.822249C2.44759 0.506765 2.97909 0.317315 3.55632 0.276096C3.92932 0.249145 4.3031 0.234877 4.67688 0.222194C4.90046 0.214659 5.12404 0.206921 5.34763 0.199182C6.20599 0.169474 7.06446 0.139761 7.92343 0.121524L8.28156 0.113797C10.1122 0.0742666 11.9422 0.0347506 13.7723 0.016891C18.0242 -0.0251208 22.2746 0.00975691 26.525 0.13817C27.7544 0.175426 28.9838 0.21506 30.2132 0.255486C30.3488 0.260242 30.486 0.267377 30.6193 0.291157C32.0434 0.546398 33.0157 1.36048 33.5535 2.70565C33.7341 3.15747 33.7704 3.63466 33.7814 4.11582C33.7959 4.76227 33.8114 5.4088 33.827 6.05536V6.0556V6.05584L33.827 6.05608C33.8604 7.44997 33.8939 8.84399 33.9171 10.2376C33.9356 11.3629 33.9436 12.4881 33.9517 13.6133C33.9563 14.2613 33.9609 14.9093 33.9675 15.5573C33.9703 15.8383 33.9791 16.1189 33.988 16.3997C33.9918 16.5228 33.9957 16.646 33.9991 16.7693V23.2359C33.9963 23.2996 33.9929 23.3631 33.9895 23.4266L33.9894 23.4272C33.9822 23.5621 33.9749 23.6969 33.9739 23.832C33.9701 24.3209 33.9682 24.8097 33.9662 25.2984C33.9628 26.1608 33.9593 27.0231 33.9462 27.8858C33.9209 29.556 33.8853 31.2256 33.8497 32.8956L33.8496 32.8974L33.8272 33.9561C33.8128 34.6449 33.792 35.3338 33.7711 36.0226L33.7649 36.2295C33.7475 36.8232 33.5851 37.3789 33.2799 37.8838C32.6309 38.9595 31.6933 39.6007 30.4363 39.7292C30.1156 39.7621 29.7924 39.7705 29.47 39.7788H29.4698L29.367 39.7815L28.8797 39.7954C27.2632 39.8415 25.6466 39.8877 24.03 39.9273C23.3868 39.9432 22.7435 39.9524 22.1005 39.9617C21.7463 39.9668 21.3922 39.9719 21.0381 39.9781C20.9868 39.9791 20.9359 39.9851 20.8848 39.9912C20.8574 39.9945 20.8299 39.9978 20.8024 40.0002H20.8016ZM16.2618 10.3756C16.2506 10.3497 16.2403 10.3262 16.2306 10.3041L16.2306 10.3041L16.2306 10.304L16.2304 10.3038L16.2304 10.3037C16.2114 10.2604 16.1949 10.2228 16.1798 10.1845C15.724 9.0423 15.2682 7.90005 14.8124 6.75701L12.6407 1.3145C12.5944 1.19771 12.5082 1.14038 12.382 1.14249C12.1659 1.14601 11.9498 1.14898 11.7338 1.15194L11.7338 1.15194L11.7337 1.15194L11.7337 1.15194L11.7336 1.15194L11.7336 1.15194L11.7336 1.15194L11.7335 1.15195L11.7335 1.15195L11.7334 1.15195L11.7334 1.15195L11.7334 1.15195L11.7333 1.15195L11.7333 1.15195L11.7332 1.15195L11.7332 1.15195L11.7332 1.15195L11.7331 1.15195L11.7331 1.15195L11.733 1.15195L11.733 1.15195H11.733C11.2691 1.15832 10.8053 1.16468 10.3412 1.17658C8.4147 1.22731 6.48823 1.28121 4.56175 1.33828L4.44675 1.34143C4.12247 1.35012 3.79611 1.35888 3.47668 1.40566C2.32615 1.57291 1.37198 2.6676 1.33571 3.836L1.32439 4.19464L1.32439 4.19466L1.32439 4.19469L1.32438 4.19471L1.32438 4.19474L1.32438 4.19477L1.32438 4.19479L1.32438 4.19482L1.32438 4.19484L1.32438 4.19487L1.32438 4.19489L1.32438 4.19492L1.32438 4.19495L1.32438 4.19497L1.32438 4.195L1.32438 4.19502L1.32438 4.19505L1.32437 4.19507L1.32437 4.1951L1.32437 4.19513C1.30738 4.73094 1.29039 5.26665 1.27814 5.80184C1.26947 6.18782 1.26028 6.57381 1.25108 6.95979C1.22267 8.15281 1.19426 9.34584 1.18115 10.5389C1.14645 13.7262 1.11491 16.9136 1.10466 20.1009C1.09204 24.0128 1.14093 27.9238 1.22925 31.8349L1.24973 32.7616C1.26996 33.684 1.2902 34.6066 1.31442 35.5288L1.31718 35.6401C1.32426 35.9336 1.3314 36.2295 1.37829 36.5172C1.56518 37.6642 2.63843 38.5948 3.79132 38.6353C4.01678 38.6432 4.24225 38.6523 4.46777 38.6614L4.46921 38.6615C4.78115 38.6741 5.0932 38.6866 5.40552 38.6963C5.68498 38.7048 5.96445 38.7137 6.24392 38.7225L6.24456 38.7226L6.24521 38.7226L6.24586 38.7226L6.24661 38.7226L6.24736 38.7227L6.24811 38.7227L6.24886 38.7227L6.24961 38.7227L6.25036 38.7227L6.25111 38.7228L6.25187 38.7228L6.25262 38.7228L6.25341 38.7228L6.2542 38.7229L6.25499 38.7229L6.25578 38.7229L6.25657 38.7229L6.25736 38.7229H6.25744H6.25752H6.2576H6.25768H6.25776H6.25784H6.25792H6.258H6.25808H6.25816H6.25824H6.25833H6.25841H6.25849H6.25857H6.25866H6.25874H6.25882H6.25891C7.14709 38.7511 8.03538 38.7794 8.92412 38.7962L9.21524 38.8017C10.9603 38.8348 12.7054 38.8679 14.4504 38.8754C16.8146 38.8857 19.1779 38.8826 21.542 38.8588C22.9451 38.8449 24.3476 38.8089 25.7504 38.773C26.1894 38.7617 26.6285 38.7505 27.0675 38.7399C27.7134 38.7241 28.3587 38.7023 29.004 38.6806L29.0053 38.6805L29.0063 38.6805L29.0074 38.6805C29.2048 38.6738 29.4022 38.6671 29.5996 38.6606C29.6621 38.6585 29.7246 38.6569 29.7872 38.6554C29.9798 38.6505 30.1727 38.6457 30.3638 38.6242C31.6444 38.4767 32.6333 37.3876 32.6688 36.0892L32.6845 35.5115L32.6845 35.5103C32.7159 34.3638 32.7472 33.2178 32.7681 32.0711L32.7721 31.8547C32.811 29.7549 32.8499 27.6551 32.8675 25.5545C32.888 23.1369 32.8927 20.7192 32.8864 18.3015C32.8801 16.021 32.8612 13.7397 32.8296 11.4592C32.8079 9.87393 32.7721 8.28916 32.7363 6.7045L32.7363 6.70405L32.7363 6.70359L32.7363 6.70314L32.7363 6.70268L32.7363 6.70223L32.7362 6.70177L32.7362 6.70132L32.7362 6.70086L32.7362 6.70041L32.7362 6.69995L32.7362 6.6995L32.7362 6.69904L32.7362 6.69859L32.7362 6.69813L32.7361 6.69768L32.7361 6.69722L32.7361 6.69677L32.7361 6.6963L32.7361 6.69583L32.7361 6.69498L32.7361 6.69413L32.736 6.69327L32.736 6.69242L32.736 6.69157L32.736 6.69072L32.7359 6.68987L32.7359 6.68902L32.7359 6.68817L32.7359 6.68732L32.7358 6.68647L32.7358 6.68563L32.7358 6.68478L32.7358 6.68393L32.7358 6.68309L32.7357 6.68224L32.7357 6.6814L32.7357 6.68055L32.7357 6.67971C32.7251 6.20926 32.7145 5.73881 32.7043 5.26837C32.7021 5.16919 32.7002 5.06995 32.6984 4.9707L32.6984 4.96796V4.96776C32.6904 4.53177 32.6825 4.09552 32.6427 3.66241C32.5308 2.43138 31.4244 1.40883 30.1966 1.36761C29.8541 1.35619 29.5118 1.34324 29.1695 1.3303C28.6566 1.3109 28.1437 1.29151 27.6306 1.27725L27.2665 1.26723L27.2665 1.26723C25.9147 1.23001 24.5623 1.19278 23.2107 1.17023C21.5783 1.14328 19.946 1.12822 18.3128 1.12188C17.2005 1.11729 16.0881 1.12143 14.9758 1.12556H14.9757C14.552 1.12714 14.1282 1.12871 13.7044 1.12981C13.6647 1.12981 13.6249 1.13349 13.5779 1.13784C13.5559 1.13988 13.5324 1.14206 13.5065 1.14408L14.011 2.40829L14.0136 2.41471L14.0215 2.43447C15.0136 4.92055 15.9998 7.39178 16.9888 9.87223C16.7444 10.0411 16.5086 10.2044 16.261 10.3764L16.2618 10.3756ZM14.389 16.4887L14.7761 16.8827L14.7883 16.8951C15.7294 17.8529 16.6649 18.805 17.6143 19.7704C17.9005 19.5521 18.1838 19.3356 18.471 19.1161L19.0432 18.6789C19.3765 19.484 19.706 20.2802 20.0351 21.0756L20.5801 22.3926L20.558 22.4123L20.5421 22.4267C20.5136 22.4525 20.4877 22.476 20.4594 22.4972L19.67 23.0989C18.8626 23.7143 18.0555 24.3296 17.246 24.9418C16.5394 25.4761 15.6421 25.4143 15.0175 24.7888C13.0887 22.8595 11.1614 20.9285 9.2365 18.9944C8.49052 18.2453 8.55833 17.0991 9.39027 16.4428C10.9092 15.2442 12.4294 14.0471 13.9496 12.8501L13.9525 12.8478C14.9972 12.0252 16.0418 11.2026 17.0859 10.3796C17.2058 10.2853 17.343 10.2361 17.4865 10.2012C18.57 9.94044 19.2805 10.7973 19.3704 11.4909C19.4477 12.0926 19.2537 12.5888 18.7774 12.9693C17.3714 14.0941 15.9662 15.2197 14.5609 16.3453C14.5164 16.3812 14.4725 16.4183 14.4177 16.4645L14.4176 16.4646L14.389 16.4887ZM20.5508 17.5172C21.0515 18.768 21.5483 20.0077 22.0577 21.2784L22.0585 21.2792L22.1221 21.2325C22.162 21.2033 22.1952 21.179 22.2281 21.154L22.6268 20.851L22.6269 20.8509L22.627 20.8508L22.6271 20.8507L22.6272 20.8506C23.1451 20.4572 23.6633 20.0636 24.179 19.6669C24.2839 19.586 24.3888 19.5496 24.5204 19.5496C25.4253 19.552 26.3306 19.5517 27.2361 19.5514L28.1416 19.5512C28.2378 19.5512 28.334 19.5512 28.4302 19.5448C29.4908 19.4759 30.2147 18.4382 29.9206 17.4109C29.7155 16.6952 29.0752 16.2005 28.3308 16.1958C27.7859 16.1917 27.2406 16.1936 26.6955 16.1956H26.6951H26.6948H26.6945H26.6942H26.6939H26.6935H26.6932H26.6929H26.6926H26.6923H26.6919H26.6916H26.6913H26.691H26.6907H26.6903H26.69H26.6897C26.4944 16.1962 26.2991 16.1969 26.1039 16.1974C25.7488 16.1981 25.3937 16.1996 25.0385 16.201L25.0377 16.201C24.3278 16.2038 23.6178 16.2066 22.9078 16.2045C22.4528 16.2037 22.053 16.3345 21.6974 16.623C21.4786 16.7999 21.2545 16.9703 21.0303 17.1408L21.0302 17.1409L21.0301 17.141L21.0299 17.1411L21.0298 17.1413L21.0297 17.1414L21.0296 17.1415L21.0294 17.1416L21.0293 17.1417L21.0292 17.1418L21.029 17.1419L21.0289 17.142L21.0288 17.1421L21.0286 17.1422L21.0285 17.1423L21.0284 17.1424L21.0282 17.1425L21.0281 17.1426L21.028 17.1427C20.9184 17.226 20.8088 17.3094 20.6998 17.3935C20.6673 17.4187 20.6358 17.4454 20.6017 17.4743L20.6014 17.4746C20.5852 17.4882 20.5685 17.5024 20.5508 17.5172ZM4.64453 13.1798C4.64453 11.4827 6.00876 10.109 7.69157 10.1113C9.37595 10.1137 10.7354 11.4882 10.7331 13.1853C10.7307 14.8793 9.36334 16.2482 7.67737 16.2451C6.00245 16.2411 4.64532 14.869 4.64453 13.1798ZM24.9082 21.9442L24.909 21.9427L24.9082 21.9443L24.9082 21.9442ZM24.8698 21.8656C24.8819 21.891 24.8943 21.9173 24.9082 21.9442C24.8955 21.9672 24.8838 21.9898 24.8724 22.0118L24.8723 22.012L24.8723 22.0121C24.8461 22.0628 24.8216 22.1102 24.7899 22.1519C24.7659 22.1836 24.7311 22.2077 24.6966 22.2316C24.6836 22.2406 24.6706 22.2496 24.6583 22.2589L20.303 25.5692L20.2792 25.5875C20.2511 25.6093 20.2229 25.631 20.1934 25.6508C20.0467 25.7459 19.9 25.7245 19.7849 25.5906C19.769 25.5717 19.7543 25.5521 19.7397 25.5325L19.7397 25.5325L19.7226 25.5097C19.6678 25.4368 19.6136 25.3633 19.5595 25.2898C19.4312 25.1159 19.303 24.9421 19.1667 24.7749C18.9742 24.5379 18.9963 24.3738 19.2542 24.1804C20.0607 23.5748 20.8631 22.9639 21.6655 22.3529L21.6656 22.3529L21.6657 22.3528L21.6658 22.3527L21.6659 22.3526L21.666 22.3526L21.6661 22.3525L21.6662 22.3524L21.6663 22.3523L21.6664 22.3523L21.6665 22.3522L21.6666 22.3521L21.6667 22.352L21.6668 22.352L21.6669 22.3519L21.667 22.3518L21.6671 22.3517L21.6688 22.3504C21.9818 22.1122 22.2948 21.8739 22.608 21.6359L22.889 21.4222L22.8913 21.4204L22.8915 21.4203L22.8916 21.4202L22.8918 21.4201L22.8919 21.42L22.8921 21.4198L22.8922 21.4197L22.8924 21.4196C23.1501 21.2236 23.408 21.0274 23.6662 20.8321C23.8831 20.668 24.0164 20.6879 24.182 20.9066L24.2299 20.97C24.4166 21.2167 24.603 21.4631 24.786 21.7128C24.8189 21.7583 24.8433 21.8097 24.8696 21.8651L24.8696 21.8652L24.8697 21.8654L24.8698 21.8656ZM6.95676 34.1509L6.70928 34.1506C6.51206 34.1503 6.32356 34.15 6.13507 34.1517C6.07112 34.1517 6.04173 34.1121 6.0116 34.0715C6.00532 34.063 5.999 34.0545 5.99234 34.0463C5.72817 33.7229 5.39302 33.5516 4.97193 33.5596C4.36 33.5699 3.83875 34.013 3.72441 34.6194C3.67631 34.8762 3.68419 35.1306 3.75753 35.3803C4.05088 36.3847 5.19509 36.5543 5.83305 36.0541C6.01678 35.9099 6.14374 35.7267 6.20919 35.4715C6.18586 35.4694 6.16377 35.4669 6.14251 35.4645H6.14246H6.14242H6.14238H6.14235C6.10045 35.4597 6.06177 35.4554 6.02309 35.4549C5.78191 35.4538 5.54074 35.4542 5.29956 35.4545H5.29761C5.17669 35.4547 5.05578 35.4549 4.93486 35.4549H4.73457V34.8263C4.86606 34.8093 5.00017 34.8116 5.13458 34.8139C5.19524 34.8149 5.25596 34.8159 5.31653 34.8152C5.45227 34.8131 5.58767 34.8138 5.72316 34.8145H5.72323H5.7233H5.72337H5.72344H5.72352H5.72359H5.72367H5.72375H5.72383H5.72391H5.72399H5.72408H5.72416H5.72425H5.72434C5.79233 34.8148 5.86035 34.8152 5.92846 34.8152H6.52383C6.65278 34.8152 6.78139 34.8158 6.91253 34.8165L7.12315 34.8175C7.14759 35.2012 7.08924 35.546 6.93231 35.8694C6.64054 36.4695 6.15005 36.8254 5.51367 36.9641C4.66281 37.1504 3.9184 36.9364 3.36167 36.2467C2.85619 35.6205 2.76393 34.8976 3.05412 34.1533C3.34353 33.4113 3.91997 32.9999 4.69672 32.8858C5.44428 32.7756 6.08302 33.0118 6.60427 33.5612C6.75725 33.7221 6.87869 33.906 6.95755 34.1525L6.95676 34.1509ZM15.7488 29.1957C15.7453 29.2516 15.742 29.3038 15.739 29.3559L15.7382 29.3575L15.6854 29.3947C15.6807 29.385 15.6766 29.3748 15.6725 29.3646C15.6636 29.3425 15.6548 29.3204 15.6397 29.3036C15.4914 29.1363 15.3037 29.0325 15.0877 28.9881C14.5688 28.8811 14.1083 29.0055 13.725 29.3757C13.4135 29.6754 13.2866 30.0574 13.2708 30.4839C13.2353 31.4509 13.9529 32.1636 14.8992 32.097C15.1894 32.0764 15.4331 31.9567 15.6263 31.7371C15.6498 31.7108 15.6738 31.6851 15.702 31.655L15.7201 31.6356C15.725 31.6486 15.7297 31.6586 15.7335 31.667C15.7396 31.6801 15.7437 31.689 15.7437 31.6983C15.7461 31.7672 15.7477 31.8354 15.7437 31.9036C15.724 32.2785 15.5072 32.5678 15.1602 32.6851C14.8061 32.804 14.4497 32.7042 14.2131 32.4109C14.1642 32.3498 14.1146 32.3269 14.0412 32.3276C13.9339 32.329 13.8268 32.3291 13.7198 32.3292C13.6342 32.3292 13.5487 32.3293 13.4632 32.33C13.4421 32.33 13.421 32.335 13.395 32.3411L13.3949 32.3411C13.382 32.3442 13.3679 32.3475 13.352 32.3506C13.3631 32.3793 13.373 32.4068 13.3825 32.4333C13.4013 32.486 13.4188 32.5349 13.4419 32.5813C13.5949 32.8849 13.833 33.0997 14.1493 33.2123C14.7131 33.4128 15.2643 33.3724 15.7855 33.0672C16.1396 32.8595 16.3494 32.5456 16.4117 32.1382C16.4322 32.0042 16.4464 31.8671 16.4464 31.7308C16.4487 31.1024 16.4484 30.4745 16.4481 29.8463L16.4479 29.218C16.4479 29.1819 16.4445 29.1458 16.4408 29.1069L16.4408 29.1069C16.4389 29.0869 16.4369 29.0662 16.4353 29.0444C16.1995 29.0341 15.9827 29.0262 15.7579 29.0476L15.7488 29.1957ZM15.7532 30.5291C15.7603 31.0506 15.3786 31.4478 14.8676 31.4494C14.3527 31.4517 13.9655 31.0546 13.9647 30.5227C13.9639 30.0075 14.3535 29.604 14.8574 29.5993C15.3708 29.5945 15.7461 29.9837 15.7532 30.5291ZM11.5105 33.9897L11.5318 34.3068L11.5751 34.2639C11.6092 34.2301 11.636 34.2036 11.6627 34.1768C11.9742 33.866 12.4876 33.7875 12.8755 33.9921C13.0088 34.0618 13.1176 34.1601 13.2012 34.2853C13.2234 34.3191 13.246 34.3521 13.2732 34.3916L13.2734 34.392L13.2736 34.3922L13.2739 34.3926L13.274 34.3928L13.3069 34.4407L13.348 34.3865L13.3482 34.3862L13.3486 34.3857C13.3767 34.3486 13.4017 34.3154 13.4275 34.283C13.8786 33.721 14.7918 33.7471 15.1963 34.3321C15.3248 34.5176 15.3761 34.7285 15.3792 34.9456C15.3866 35.409 15.3866 35.8727 15.3867 36.3363V36.3365C15.3867 36.5168 15.3867 36.6971 15.3871 36.8774C15.3871 36.8868 15.3841 36.8963 15.3794 36.9105C15.3762 36.9202 15.3724 36.9322 15.3682 36.9479C15.3173 36.9483 15.2653 36.9489 15.2127 36.9494L15.2106 36.9495C15.154 36.9501 15.0967 36.9507 15.0394 36.9511H14.7026C14.7011 36.9243 14.6993 36.8991 14.6976 36.875C14.694 36.8258 14.6908 36.7812 14.6908 36.7371C14.69 36.2583 14.69 35.7795 14.69 35.3008C14.69 35.1454 14.6743 34.9948 14.6088 34.8505C14.5102 34.6325 14.3383 34.5358 14.1073 34.5382C13.877 34.5406 13.6854 34.6191 13.5718 34.8355C13.5017 34.9694 13.4796 35.1153 13.4804 35.2651V36.7355V36.936H12.7912C12.7901 36.9175 12.7886 36.8984 12.7871 36.8789L12.7871 36.8789C12.784 36.8402 12.7809 36.8001 12.7809 36.7601C12.7807 36.6087 12.7808 36.4574 12.7809 36.306V36.3058C12.7812 35.9729 12.7815 35.64 12.7777 35.3071C12.7762 35.1827 12.7636 35.0558 12.732 34.9361C12.6689 34.6991 12.4986 34.5683 12.2526 34.5438C11.9963 34.5184 11.7826 34.6278 11.6706 34.8434C11.5957 34.9884 11.5704 35.1446 11.5704 35.3063C11.5704 35.7759 11.5697 36.2447 11.5689 36.7143V36.715V36.7156V36.7162V36.7168V36.7175V36.7182V36.7188V36.7195V36.7202V36.7208V36.7215V36.7222V36.7228L11.5689 36.7252V36.9384H10.8828V33.9897H11.5097H11.5105ZM17.9745 14.232L17.8359 14.3475L21.0446 22.2774C21.1143 22.2247 21.1784 22.1767 21.2397 22.1306C21.2908 22.0923 21.3401 22.0553 21.3892 22.0182C21.4618 21.963 21.5344 21.9075 21.6088 21.8506L21.7472 21.7448L20.4291 18.466C19.8004 16.9019 19.171 15.3362 18.5378 13.7617C18.3447 13.9235 18.1621 14.0756 17.9761 14.2307L17.9745 14.232ZM30.1998 29.3529V28.0117H30.8685C30.9063 28.129 30.9221 31.6755 30.8858 31.9822C30.7699 32.0274 30.4332 32.0338 30.2415 31.9917L30.2385 31.947C30.2359 31.9092 30.2332 31.8698 30.2321 31.8308C30.2311 31.7952 30.2313 31.7595 30.2317 31.7158V31.7156C30.2319 31.6903 30.2321 31.6624 30.2321 31.6303C30.2137 31.6464 30.1981 31.6592 30.1845 31.6704L30.1845 31.6704C30.1612 31.6895 30.144 31.7036 30.1296 31.7206C29.9316 31.9569 29.6746 32.0694 29.3741 32.0964C28.3237 32.1915 27.7189 31.3964 27.711 30.5546C27.7087 30.2764 27.7568 30.0108 27.8782 29.7604C28.196 29.1056 28.912 28.821 29.5815 28.9962C29.8118 29.0565 30.0026 29.1865 30.1603 29.368L30.199 29.3529H30.1998ZM30.2423 30.5316C30.2423 29.9974 29.8488 29.5955 29.3252 29.5955C28.8 29.5955 28.4136 29.9839 28.4113 30.5134C28.4089 31.0556 28.7937 31.4503 29.3236 31.4496C29.8425 31.448 30.2415 31.0493 30.2423 30.5316ZM3.96282 30.6287V31.9778C3.83191 32.0253 3.42186 32.0357 3.17346 32C3.15242 31.775 3.15537 31.5478 3.15832 31.3199C3.15968 31.2145 3.16105 31.1091 3.16005 31.0036C3.15732 30.7748 3.15799 30.5459 3.15867 30.3171C3.15897 30.2154 3.15926 30.1137 3.15926 30.012C3.15926 29.9024 3.159 29.7916 3.15874 29.6802V29.6801V29.68V29.68V29.68V29.68V29.68V29.6799V29.6799V29.6799V29.6799V29.6798C3.15822 29.455 3.15768 29.2275 3.15926 29.0029C3.16029 28.8962 3.15924 28.7895 3.15818 28.6826C3.15599 28.4599 3.15379 28.2362 3.1703 28.0097C3.19014 28.008 3.20838 28.0061 3.22558 28.0043L3.22579 28.0043L3.22595 28.0042H3.22597H3.22599H3.22601C3.25855 28.0008 3.28737 27.9978 3.31619 27.9978C3.41362 27.9978 3.511 27.9976 3.60836 27.9974H3.60843H3.6085H3.60857H3.60864H3.60871H3.60878H3.60885H3.60892H3.60899H3.60906C3.92518 27.9969 4.24106 27.9963 4.5574 28.0017C4.71511 28.0041 4.8744 28.0216 5.02975 28.0501C5.53917 28.1428 5.83015 28.4694 5.9579 28.9577C6.01941 29.1939 6.01152 29.4325 5.95238 29.6687C5.80886 30.2371 5.39959 30.574 4.78766 30.6176C4.64846 30.6273 4.50889 30.6274 4.36921 30.6276C4.30473 30.6276 4.24023 30.6277 4.17573 30.6287C4.13645 30.6292 4.09716 30.629 4.05028 30.6289L3.96282 30.6287ZM4.17517 29.9308C4.10663 29.9292 4.03768 29.9276 3.96834 29.9279V28.7381C3.97242 28.7343 3.97601 28.7303 3.9793 28.7266C3.98615 28.7189 3.99165 28.7128 3.99751 28.7128L4.03324 28.7105C4.28083 28.6944 4.52891 28.6783 4.77268 28.7365C5.1851 28.8348 5.36411 29.255 5.15908 29.6299C5.10309 29.7329 5.02108 29.809 4.91147 29.851C4.67174 29.9426 4.42618 29.9368 4.17517 29.9308ZM10.3387 32.0038H9.65977L9.64242 31.6289C9.6277 31.6434 9.61525 31.6554 9.60442 31.6658L9.60408 31.6661L9.60403 31.6662C9.58316 31.6862 9.56835 31.7005 9.55488 31.7161C9.35774 31.9523 9.09909 32.0688 8.80022 32.0958C7.67966 32.1988 7.06458 31.296 7.14817 30.3654C7.16394 30.1918 7.20731 30.015 7.27276 29.8541C7.54876 29.1748 8.28765 28.807 8.98633 28.9885C9.20003 29.044 9.38377 29.1518 9.53281 29.3175C9.54918 29.3359 9.56587 29.3537 9.58955 29.379L9.64005 29.4332L9.65898 29.0797C9.79303 29.025 10.1629 29.0194 10.3395 29.0702V32.0046L10.3387 32.0038ZM8.74502 31.4529C9.26863 31.4529 9.65267 31.055 9.65425 30.5112C9.65582 29.9904 9.25996 29.5949 8.73793 29.5957C8.22693 29.5973 7.83659 30.0008 7.83659 30.5295C7.83659 31.0566 8.22614 31.4529 8.74502 31.4529ZM9.83773 33.9879L9.81801 34.324C9.80977 34.3252 9.80351 34.3264 9.79877 34.3273C9.79082 34.3288 9.78716 34.3295 9.78568 34.328C9.75729 34.3003 9.72969 34.2725 9.70288 34.2432C9.55305 34.0791 9.36853 33.9689 9.15325 33.9214C8.63595 33.808 8.17148 33.9253 7.78666 34.2939C7.40263 34.6625 7.28119 35.131 7.33087 35.6518C7.40736 36.4444 7.94753 36.9874 8.73452 37.039C9.12407 37.0643 9.47577 36.9589 9.74073 36.645C9.75172 36.6317 9.76539 36.6204 9.78546 36.6038L9.7855 36.6037L9.78567 36.6036C9.79436 36.5964 9.80425 36.5882 9.81565 36.5784L9.84009 36.9375H10.5143V33.9879H9.83773ZM9.83378 35.4425C9.83536 35.9839 9.45133 36.385 8.92851 36.3866V36.3874C8.40884 36.389 8.01613 35.9958 8.01298 35.471C8.01061 34.9479 8.40332 34.5365 8.91195 34.5309C9.42767 34.5246 9.83221 34.9249 9.83378 35.4425ZM18.732 35.6917H16.386C16.386 35.71 16.3852 35.7271 16.3843 35.7432C16.3827 35.776 16.3813 35.8049 16.3876 35.832C16.4641 36.1697 16.7819 36.4209 17.1612 36.4431C17.4632 36.4606 17.7195 36.371 17.9056 36.1173C17.93 36.084 17.9742 36.046 18.0097 36.0452C18.1623 36.04 18.3154 36.0407 18.4698 36.0415C18.5252 36.0418 18.5808 36.042 18.6366 36.042C18.5041 36.6976 17.6327 37.17 16.8891 37.0075C16.0335 36.8204 15.5036 35.9604 15.7078 35.09C15.9105 34.2244 16.7693 33.71 17.6288 33.9311C18.4402 34.1396 18.8937 35.0044 18.732 35.6917ZM18.0531 35.1455C18.0136 34.7389 17.6304 34.4551 17.1738 34.4765C16.7495 34.4955 16.4042 34.7904 16.4018 35.1455H18.0531ZM18.3982 29.7508C17.8565 30.7504 18.4818 32.1154 19.7924 32.0947V32.0955L19.8145 32.0957L19.832 32.0959C19.8585 32.0962 19.8852 32.0966 19.9115 32.0955C20.6693 32.0622 21.2623 31.5066 21.3625 30.7179C21.4508 30.0227 21.0707 29.2847 20.3358 29.0374C20.1063 28.9597 19.8705 28.9359 19.6316 28.9581C19.0867 29.0089 18.6632 29.2625 18.3982 29.7508ZM19.7924 29.5994C20.2916 29.6018 20.6748 30.0084 20.6709 30.5324C20.6677 31.046 20.2829 31.4455 19.7901 31.4455C19.2925 31.4455 18.8966 31.0357 18.8982 30.5213C18.8998 30.0045 19.2948 29.5978 19.7924 29.5994ZM23.6979 29.0533C23.9352 29.0256 24.1529 29.0335 24.365 29.0446C24.406 29.1936 24.4099 31.8301 24.3713 32.0037H23.7538C23.7452 31.8998 23.7365 31.7968 23.7247 31.666C23.7091 31.6828 23.6957 31.6969 23.6838 31.7094L23.6837 31.7095C23.6625 31.7319 23.646 31.7492 23.6308 31.7675C23.4605 31.9704 23.2405 32.0821 22.9803 32.0925C22.8013 32.0996 22.6159 32.0925 22.4409 32.056C22.112 31.9878 21.8818 31.7801 21.7682 31.4639C21.7115 31.3053 21.6681 31.1325 21.6641 30.9661C21.6547 30.5131 21.6559 30.0601 21.657 29.6071C21.6574 29.456 21.6578 29.305 21.6578 29.154C21.6578 29.1349 21.6604 29.1158 21.6639 29.0908C21.6654 29.0794 21.6671 29.0669 21.6689 29.0525C21.8897 29.024 22.1057 29.0343 22.3423 29.0462C22.3431 29.0593 22.3441 29.0721 22.345 29.0847L22.3483 29.1242C22.3521 29.1693 22.3557 29.2116 22.3557 29.2539C22.356 29.4001 22.3558 29.5463 22.3557 29.6924V29.6928V29.6929V29.6929V29.6929V29.693C22.3554 30.014 22.3551 30.3349 22.3589 30.6561C22.3604 30.7861 22.3738 30.9193 22.4078 31.0437C22.4661 31.2594 22.6144 31.3925 22.8352 31.4353C22.9881 31.4647 23.1403 31.4575 23.2878 31.4068C23.4794 31.3402 23.6009 31.2015 23.6505 31.0073C23.6797 30.8923 23.6939 30.7719 23.6955 30.653C23.699 30.3023 23.6986 29.9521 23.6982 29.6017V29.6017V29.6016V29.6015V29.6014V29.6014L23.6979 29.2507V29.0533ZM24.716 32.0094H25.395L25.3966 32.0102V31.8065L25.3965 31.4686C25.3963 31.131 25.3962 30.7934 25.3974 30.4558C25.3974 30.371 25.4013 30.2846 25.4139 30.2005C25.4794 29.7527 25.7995 29.5307 26.2403 29.6163C26.4777 29.6623 26.6275 29.8018 26.6851 30.0317C26.7151 30.1514 26.7269 30.2782 26.7285 30.4027C26.7323 30.728 26.732 31.053 26.7316 31.3781V31.3781V31.3781V31.3782V31.3782C26.7315 31.5259 26.7314 31.6737 26.7316 31.8216C26.7316 31.861 26.735 31.9003 26.7386 31.9431V31.9431C26.7406 31.9657 26.7426 31.9892 26.7442 32.0142C26.9808 32.0197 27.1985 32.0229 27.4153 32.0134C27.4178 31.9992 27.4201 31.9873 27.4221 31.977L27.4221 31.9768C27.4265 31.9542 27.4295 31.939 27.4295 31.9238C27.4293 31.7519 27.4297 31.58 27.4302 31.408V31.4078C27.4314 30.9703 27.4326 30.5327 27.4224 30.0951C27.4185 29.9168 27.3696 29.7337 27.3081 29.5648C27.2 29.2676 26.9784 29.0726 26.6725 28.9996C26.5092 28.9608 26.3358 28.9505 26.1678 28.9537C25.8831 28.9584 25.6402 29.0702 25.4541 29.2945C25.4402 29.3111 25.4231 29.3247 25.402 29.3416C25.3897 29.3514 25.3762 29.3622 25.3611 29.3754L25.355 29.2463L25.3502 29.1443L25.3461 29.0527C25.1292 29.029 24.9258 29.0258 24.7058 29.0527V30.0468C24.7058 30.1569 24.7054 30.2671 24.7051 30.3773V30.3778C24.7044 30.598 24.7037 30.8182 24.7058 31.0384C24.7065 31.139 24.7056 31.2398 24.7046 31.3408V31.3409V31.341V31.3411V31.3412C24.7025 31.5624 24.7003 31.7848 24.716 32.0094ZM10.5241 29.0432L10.5243 29.0432L10.5244 29.0432C10.5816 29.0399 10.6328 29.0369 10.6844 29.0363C10.7979 29.0348 10.9107 29.0348 11.0242 29.0363L11.0244 29.0364C11.1646 29.0395 11.167 29.0396 11.2174 29.1774C11.3581 29.5598 11.4979 29.9425 11.6378 30.3253L11.638 30.3258L11.6381 30.3263L11.6383 30.3268L11.816 30.8127C11.8283 30.8469 11.842 30.8803 11.8601 30.9246L11.876 30.9636L11.8932 31.0061C11.9053 30.9782 11.9161 30.9543 11.9257 30.933L11.9258 30.9329C11.9437 30.8931 11.9577 30.8621 11.9689 30.8302C12.0664 30.5598 12.1636 30.2891 12.2608 30.0185C12.358 29.7481 12.4551 29.4777 12.5525 29.2076C12.614 29.0371 12.6148 29.0363 12.7922 29.0356C12.9099 29.035 13.0279 29.0352 13.1399 29.0354H13.14H13.14H13.1401L13.2969 29.0356C13.3061 29.0455 13.3123 29.0518 13.3165 29.0561L13.3222 29.062C13.3242 29.0642 13.3253 29.0656 13.3261 29.0673C13.3284 29.072 13.3308 29.0784 13.33 29.0839C13.3283 29.0914 13.3268 29.099 13.3252 29.1066C13.3211 29.127 13.317 29.1473 13.3095 29.1663C12.8096 30.4552 12.3096 31.7441 11.8049 33.0433H11.0731C11.08 33.0238 11.0862 33.005 11.0922 32.9869C11.1042 32.9506 11.1154 32.9168 11.1291 32.884L11.2016 32.7094C11.2929 32.489 11.3843 32.2685 11.4816 32.0509C11.5273 31.9486 11.5242 31.8607 11.484 31.7576C11.2169 31.0796 10.9524 30.4 10.688 29.7205L10.688 29.7205L10.688 29.7204L10.6879 29.7204L10.5093 29.2615C10.4916 29.2162 10.476 29.1704 10.4573 29.1159L10.4573 29.1158L10.4344 29.049L10.4336 29.0482C10.4657 29.0467 10.4956 29.0449 10.5241 29.0432ZM18.977 36.1036C18.963 36.1056 18.9474 36.1078 18.9297 36.11V36.1108C18.9573 36.4405 19.1 36.6783 19.3579 36.8487C19.5527 36.9779 19.7727 37.0358 20.0014 37.0421C20.3475 37.0517 20.6661 36.9645 20.9161 36.7068C21.3624 36.2487 21.2236 35.5353 20.6401 35.284C20.5624 35.2509 20.4813 35.2252 20.4003 35.1995C20.3785 35.1925 20.3567 35.1856 20.3349 35.1786C20.293 35.1647 20.2508 35.1522 20.2086 35.1397C20.142 35.12 20.0755 35.1003 20.0108 35.0755C19.9375 35.0478 19.8641 35.0129 19.8011 34.9661C19.6071 34.8219 19.6426 34.5722 19.8665 34.4786C20.0976 34.3819 20.3089 34.4763 20.3964 34.7149C20.4002 34.7246 20.4065 34.7339 20.4119 34.7419C20.4144 34.7456 20.4167 34.7491 20.4185 34.7521H21.077C21.0525 34.4461 20.9264 34.2178 20.6827 34.0569C20.5423 33.9642 20.3854 33.9143 20.2214 33.8944C19.8429 33.8485 19.4951 33.923 19.2207 34.206C18.8138 34.6261 18.9147 35.2253 19.432 35.4901C19.497 35.5238 19.5662 35.5498 19.6355 35.5757L19.667 35.5876C19.7295 35.6113 19.7925 35.6339 19.8555 35.6566C19.9418 35.6876 20.0281 35.7186 20.1133 35.7525C20.1867 35.7818 20.26 35.8159 20.3247 35.8603C20.5265 35.9982 20.5226 36.2669 20.3199 36.4025C20.0692 36.5697 19.7096 36.4468 19.6394 36.1956C19.6337 36.1747 19.6235 36.1552 19.6121 36.1332C19.6061 36.1218 19.5998 36.1097 19.5937 36.0965L19.4108 36.0963C19.2896 36.0961 19.169 36.096 19.0488 36.0965C19.0268 36.0965 19.0048 36.0996 18.9771 36.1036L18.977 36.1036ZM6.90873 32.0078H6.23765C6.21461 31.7789 6.21779 31.5511 6.22095 31.3241C6.22245 31.2171 6.22394 31.1102 6.22267 31.0035C6.21994 30.7752 6.22061 30.5465 6.22129 30.3179V30.3179C6.22158 30.2163 6.22188 30.1149 6.22188 30.0135V29.006V28.0088H6.90873V32.0078ZM17.4227 29.0499H16.8013V29.0507C16.7571 29.2853 16.769 31.8758 16.8123 32.0065H17.4684V31.8123C17.4684 31.6856 17.4683 31.5588 17.4682 31.4319C17.4678 31.1145 17.4675 30.797 17.4692 30.4799C17.47 30.3839 17.4763 30.2864 17.4929 30.1913C17.5465 29.879 17.7373 29.7015 18.052 29.6634C18.0885 29.6586 18.1251 29.6547 18.165 29.6505C18.1913 29.6476 18.219 29.6447 18.2491 29.6412C18.2497 29.5944 18.2507 29.5482 18.2516 29.5021C18.2554 29.3161 18.2591 29.1334 18.242 28.9365C18.2025 28.9442 18.165 28.9501 18.1292 28.9557C18.0536 28.9677 17.9858 28.9784 17.9226 29.0015C17.8288 29.0364 17.7381 29.0887 17.6585 29.1505C17.6066 29.1907 17.5621 29.241 17.5124 29.2972C17.4895 29.323 17.4656 29.3501 17.4392 29.378L17.4227 29.0499Z" fill="white"/>
</svg>
