<?xml version="1.0" encoding="UTF-8"?><svg id="a" xmlns="http://www.w3.org/2000/svg" viewBox="0 0 134 135"><defs><style>.b{fill:#1d1d1d;fill-rule:evenodd;}</style></defs><path class="b" d="M110.11,99.4l-1.45,4.04-2.02,5.64h-.02c-1.4,0-86.6,0-86.84-.07-3.84-1.14-5.17-5.47-4.2-8.43,3.18-9.7,7.86-23.97,12.39-37.79v-.03l.02-.02c6.88-21.01,13.42-40.97,13.88-42.33,.69-2.04,1.72-4.15,5.54-4.15,1.5-.01,15.91,0,18.84,0h.52c.61-1.79,1.22-3.56,1.83-5.34h0c.89-2.59,1.78-5.18,2.67-7.8h-4.72l.66-1.83,.43-1.18C67.27,.11,53.04,.05,46.19,0c-3.22-.02-6.24,.81-9.04,2.52-4.1,2.5-7,6.17-8.62,11.03C28.04,15.01,.82,98.25,.58,99.27c-.59,2.56-.73,5.17-.42,7.8,.61,5.23,2.7,9.6,6.32,13.04,3.54,3.36,7.71,5.15,12.37,5.17,18.08,.07,82.19,.14,82.48,.14-.26,.89-2.76,9.57-2.73,9.58l22.24-17.58,.34-.27-3.23-5.18c-2.61-4.18-5.21-8.35-7.84-12.57Zm-49.66,1.54c2.11,1.15,4.37,1.53,6.7,1.53h0c1.86,0,6.18-.01,10.88-.03h0c6.32-.03,13.32-.06,15.96-.04,1.29,.01,2.5-.26,3.66-.81,3.45-1.64,6.08-4.23,7.39-8.19,3.24-9.77,6.46-19.53,9.69-29.3,2.54-7.68,5.07-15.35,7.61-23.03,.7-2.13,1.05-4.3,.94-6.56-.13-2.67-.94-5.03-2.62-6.99-1.62-1.89-3.66-2.95-5.93-3.53-1.55-.39-3.11-.42-4.69-.41-8.75,.03-17.51,.04-26.26,.04-.88,0-1.72,.15-2.54,.47l-.04,.02c-.45,.17-.9,.35-1.33,.57-3.26,1.74-5.69,4.33-6.95,8.16-2.57,7.79-5.15,15.58-7.72,23.37v.02c-3.22,9.73-6.44,19.46-9.65,29.19-.69,2.1-.97,4.27-.77,6.51,.37,4.16,2.26,7.16,5.66,9.01Zm32.64-15.87c-.53,1.63-1.49,2.37-3.08,2.37-2.66,0-13.27,0-15.93,0-2.24,0-3.56-2.05-2.83-4.4,.45-1.42,4.38-13.48,8.16-25.06,2.1-6.45,4.16-12.74,5.54-16.97,.4-1.24,1.11-2.07,2.3-2.36,.23-.06,.47-.06,.7-.06,5.37,0,10.74,0,16.11,0,2.03,0,3.36,1.85,2.86,4.03-.13,.55-6.08,18.76-10.71,32.93-1.16,3.54-2.23,6.84-3.11,9.53ZM27.6,102.36c6.77-20.48,13.5-40.86,20.27-61.35-.31,0-1.3,0-2.49,0-2.35,0-5.45,0-5.45-.01,0-.02,3.29-10.43,3.32-10.49,.29-.04,.57-.08,.86-.11h0c.62-.08,1.22-.15,1.81-.28,1.98-.44,3.78-1.3,5.3-2.81,.98-.97,1.74-2.12,2.29-3.43,.16-.38,.35-.49,.71-.49,1.26,0,2.89,0,4.6,.01h0c4.41,.01,9.3,.02,9.42,.03-.04,.51-18.79,57.67-25.91,79.16l-4.28-.07c-3.45-.05-6.92-.11-10.46-.16h0ZM78.85,2.42h5.25s-.16,.47-.38,1.12h0c-.93,2.74-3.26,9.56-3.32,9.94-.27,1.75,.61,3.03,2.21,3.24,.19,.03,8.09,.01,8.37-.06,2.24-.57,3.85-1.98,4.7-4.37,1.31-3.71,3.98-11.46,4.04-11.66h-4.94s-.33,.93-.77,2.2h0c-1.15,3.29-3.2,9.14-3.41,9.68-.69,1.72-2.15,2.64-3.8,2.42-.89-.12-1.39-.74-1.3-1.72,.03-.34,2.68-8.05,3.78-11.24,.27-.78,.45-1.29,.46-1.35h-20.27c-.19,.57-.38,1.11-.6,1.75h4.99l-2.76,7.91-2.25,6.45h5c.83-2.38,4.16-11.9,5-14.29Zm28.04,14.33c.51-1.47,1.72-5,1.75-5.4,.08-.88-.31-1.44-1.09-1.65h-.03c-.14-.05-.29-.09-.43-.09-.65,0-1.3,0-1.98,0h0c-.24,0-.48,0-.72,0-.47,1.33-.94,2.66-1.4,4l-1.11,3.15h-4.91c.03-.49,5.19-15.37,5.59-16.14h.45c.79,0,1.57,0,2.36,0,2.62,0,5.23,0,7.85,.02,.37,0,.75,.04,1.11,.12,1.41,.35,2.19,1.65,1.92,3.2-.32,1.82-1.15,3.3-2.55,4.36-.07,.06-.14,.11-.22,.16h0c-.07,.06-.15,.11-.22,.17,0,0-.01,.02-.03,.04,0,.01-.02,.03-.03,.05,.42,.68,.61,1.46,.5,2.3-.06,.45-1.2,3.95-1.66,5.26-.18,.51-.18,.51-.67,.51-1.32,0-4.25-.04-4.49-.06h0Zm0-14.31c-.21,.62-.43,1.24-.65,1.85-.41,1.15-.81,2.29-1.19,3.49,.3,0,.59,0,.87,0h0c.6,0,1.18,0,1.75,0,1.72-.04,3.21-1.5,3.46-3.37,.15-1.14-.34-1.89-1.37-1.95-.65-.04-1.3-.03-1.96-.02-.3,0-.6,0-.91,0h0Zm17.82,14.38h4.87c.05-.11,2.85-8.01,4.18-11.91,.18-.53,.25-1.14,.24-1.71-.02-1.29-.76-2.2-1.91-2.44-.38-.08-.78-.12-1.17-.12-3.34-.01-10.42-.02-10.66-.02-1.27,3.63-2.54,7.25-3.82,10.88-.62,1.76-1.23,3.52-1.86,5.29h5c.03-.07,.29-.81,.67-1.91,.9-2.56,2.48-7.07,3.38-9.58,.2-.55,.47-1.11,.83-1.55,.91-1.1,2.07-1.55,3.42-1.18,.73,.2,1.11,.87,.99,1.68-.03,.17-.71,2.16-1.51,4.51-1.22,3.54-2.71,7.9-2.66,8.07Z"/></svg>