<?xml version="1.0" encoding="UTF-8"?><svg id="a" xmlns="http://www.w3.org/2000/svg" viewBox="0 0 113 132"><defs><style>.b{fill:#1d1d1d;fill-rule:evenodd;}</style></defs><path class="b" d="M69.13,132h-25.21c-.1,0-.19-.02-.29-.03-.2-.02-.41-.04-.61-.05-1.43-.02-2.86-.04-4.3-.06-2.67-.04-5.35-.07-8.02-.14-5.6-.14-11.2-.33-16.81-.51l-.99-.03c-.73-.02-1.47-.09-2.19-.22-5.46-.95-9.82-6-9.96-11.52-.02-.9-.05-1.8-.08-2.7-.05-1.54-.09-3.09-.12-4.63-.03-1.18-.05-2.36-.08-3.53-.1-4.5-.2-9-.26-13.51-.1-7.41-.19-14.83-.21-22.24-.02-7.49,0-14.98,.07-22.46,.08-7.62,.22-15.25,.35-22.87,.03-1.58,.06-3.15,.08-4.73,.05-2.88,.13-5.76,.21-8.64,.02-.54,.03-1.09,.05-1.63,.01-.47,.06-.94,.14-1.4C1.57,7.48,3.46,4.7,6.53,2.71c1.61-1.04,3.37-1.67,5.29-1.8,1.24-.09,2.48-.14,3.72-.18,.74-.02,1.49-.05,2.23-.08h0c2.85-.1,5.71-.2,8.56-.26l1.19-.03c6.08-.13,12.17-.26,18.25-.32,14.13-.14,28.26-.02,42.38,.4,4.09,.12,8.17,.25,12.26,.39,.45,.02,.91,.04,1.35,.12,4.73,.84,7.97,3.53,9.75,7.97,.6,1.49,.72,3.07,.76,4.65,.05,2.13,.1,4.27,.15,6.4h0c.11,4.6,.22,9.2,.3,13.8,.06,3.71,.09,7.43,.12,11.14h0c.02,2.14,.03,4.28,.05,6.41,0,.93,.04,1.85,.07,2.78h0c.01,.41,.03,.82,.04,1.22v21.34c0,.21-.02,.42-.03,.63h0c-.02,.45-.05,.89-.05,1.34-.01,1.61-.02,3.22-.03,4.83h0c-.01,2.85-.02,5.7-.07,8.55-.08,5.51-.2,11.01-.32,16.52h0v.02h0c-.03,1.17-.05,2.33-.07,3.5-.05,2.27-.12,4.55-.19,6.82l-.02,.68c-.06,1.96-.6,3.79-1.61,5.46-2.16,3.55-5.27,5.67-9.45,6.09-1.07,.11-2.14,.14-3.21,.16h-.34l-1.62,.06c-5.37,.15-10.74,.3-16.11,.43-2.14,.05-4.28,.08-6.41,.11-1.18,.02-2.35,.03-3.53,.06-.17,0-.34,.02-.51,.04h0c-.06,0-.13,.01-.19,.02-.03,0-.06,0-.09,0h0Zm-15.09-97.76c-.04-.09-.07-.16-.1-.24-.06-.14-.12-.27-.17-.39-1.51-3.77-3.03-7.54-4.54-11.31-1.2-2.99-2.4-5.98-3.6-8.97h0c-1.2-3.01-2.41-6-3.61-8.99-.15-.39-.44-.57-.86-.57-.72,.01-1.44,.02-2.16,.03h0c-1.54,.02-3.08,.04-4.63,.08-6.4,.17-12.81,.35-19.21,.53-.13,0-.25,0-.38,.01h0c-1.08,.03-2.16,.06-3.22,.21-3.82,.55-6.99,4.16-7.12,8.02-.01,.39-.03,.79-.04,1.18-.06,1.77-.11,3.54-.15,5.3-.03,1.27-.06,2.55-.09,3.82-.09,3.94-.19,7.87-.23,11.81-.12,10.52-.22,21.04-.25,31.55-.04,12.91,.12,25.82,.41,38.72,.02,1.02,.05,2.03,.07,3.05h0c.07,3.05,.13,6.09,.21,9.14,0,.12,0,.24,0,.37,.02,.97,.05,1.94,.2,2.89,.62,3.79,4.19,6.86,8.02,6.99,.75,.03,1.5,.06,2.25,.09h0c1.04,.04,2.07,.08,3.11,.11,.93,.03,1.86,.06,2.78,.09h.05c2.95,.1,5.91,.19,8.86,.24l.97,.02c5.8,.11,11.6,.22,17.4,.24,7.86,.03,15.71,.02,23.57-.05,4.66-.05,9.32-.16,13.98-.28h0c1.46-.04,2.92-.07,4.38-.11,2.15-.05,4.29-.12,6.44-.2l1.05-.04,.65-.02h.45l.18-.02h.26c.64-.02,1.28-.04,1.92-.11,4.26-.49,7.54-4.08,7.66-8.37,.02-.64,.03-1.27,.05-1.9,.1-3.79,.21-7.57,.28-11.35v-.72c.14-6.93,.27-13.86,.33-20.79,.07-7.98,.08-15.96,.06-23.93-.02-7.53-.08-15.05-.19-22.58-.07-5.24-.19-10.48-.31-15.72h0v-.02h0v-.02h0v-.02h0c-.04-1.56-.07-3.11-.11-4.66,0-.33-.01-.66-.02-.99-.03-1.44-.05-2.88-.19-4.31-.37-4.06-4.05-7.44-8.13-7.57-1.14-.04-2.27-.08-3.41-.12h0c-1.7-.06-3.41-.13-5.11-.18l-1.21-.03c-4.49-.12-8.99-.25-13.48-.32-5.43-.09-10.85-.14-16.28-.16-3.7-.02-7.39,0-11.09,.01-1.41,0-2.82,.01-4.23,.01-.13,0-.26,.01-.42,.03-.07,0-.15,.01-.24,.02l1.67,4.16v.03c3.32,8.23,6.61,16.41,9.9,24.62-.81,.56-1.6,1.1-2.42,1.66h0Zm-6.23,20.17l1.28,1.29h.01c3.14,3.19,6.26,6.34,9.43,9.54,.94-.71,1.87-1.42,2.82-2.14l.03-.02h0c.63-.48,1.26-.96,1.9-1.45,1.11,2.66,2.2,5.29,3.3,7.91h0l1.81,4.34-.06,.06-.06,.05h0c-.09,.09-.18,.17-.27,.23-.88,.66-1.75,1.32-2.62,1.99-2.68,2.03-5.37,4.06-8.06,6.08-2.35,1.76-5.33,1.56-7.41-.5-6.41-6.37-12.82-12.74-19.21-19.12-2.48-2.47-2.25-6.25,.51-8.42,5.05-3.95,10.1-7.9,15.15-11.85h0v-.02c3.48-2.71,6.95-5.43,10.42-8.14,.4-.31,.85-.47,1.33-.59,3.6-.86,5.96,1.97,6.26,4.26,.26,1.99-.39,3.62-1.97,4.88-4.67,3.71-9.34,7.43-14.01,11.14-.15,.12-.29,.24-.48,.39l-.1,.08Zm20.48,3.39c1.66,4.13,3.32,8.22,5.01,12.41h0c.08-.05,.15-.1,.21-.15,.13-.1,.24-.18,.35-.26,.44-.33,.88-.67,1.33-1h0c1.72-1.3,3.44-2.6,5.16-3.91,.35-.27,.7-.39,1.13-.39,3.01,0,6.02,0,9.02,0h0c1,0,2.01,0,3.01,0,.32,0,.64,0,.96-.02,3.53-.23,5.93-3.65,4.95-7.04-.68-2.36-2.81-3.99-5.28-4.01-1.82-.01-3.64,0-5.45,0h-.01c-.65,0-1.29,0-1.94,0-1.18,0-2.36,0-3.54,.01-2.36,0-4.72,.02-7.08,.01-1.51,0-2.84,.43-4.02,1.38-.73,.59-1.48,1.15-2.22,1.71h0c-.36,.28-.73,.55-1.09,.83-.11,.08-.21,.17-.33,.27h0c-.05,.05-.11,.09-.17,.14ZM15.43,43.49c0-5.6,4.53-10.13,10.13-10.13,5.6,0,10.12,4.54,10.11,10.14,0,5.59-4.55,10.11-10.16,10.1-5.57-.01-10.08-4.54-10.08-10.12Zm67.36,28.92h0Zm-.13-.26c.04,.08,.08,.17,.13,.26-.04,.07-.08,.15-.12,.22h0c-.09,.17-.17,.33-.27,.47-.08,.1-.2,.18-.31,.26h0s-.09,.06-.13,.09l-14.47,10.92-.08,.06c-.09,.07-.19,.14-.29,.21-.49,.31-.97,.24-1.36-.2-.05-.06-.1-.13-.15-.19-.02-.03-.04-.05-.06-.08-.18-.24-.36-.48-.54-.73-.43-.57-.85-1.15-1.31-1.7-.64-.78-.57-1.32,.29-1.96,2.68-2,5.35-4.02,8.02-6.04,1.04-.79,2.08-1.57,3.13-2.36,.31-.23,.62-.47,.93-.7h.02v-.02c.86-.65,1.72-1.29,2.57-1.94,.72-.54,1.16-.48,1.71,.25l.16,.21h0c.62,.81,1.24,1.63,1.85,2.45,.11,.15,.19,.32,.28,.5ZM23.12,112.7c-.28,0-.55,0-.82,0h0c-.65,0-1.28,0-1.9,0-.21,0-.31-.13-.41-.26h0s-.04-.06-.06-.08c-.88-1.07-1.99-1.63-3.39-1.61-2.03,.03-3.77,1.5-4.15,3.5-.16,.85-.13,1.69,.11,2.51,.97,3.31,4.78,3.87,6.9,2.22,.61-.48,1.03-1.08,1.25-1.92-.08,0-.15-.02-.22-.02-.14-.01-.27-.03-.4-.03-.8,0-1.61,0-2.41,0-.4,0-.8,0-1.21,0h-.67v-2.07c.44-.06,.88-.05,1.33-.04,.2,0,.4,0,.6,0,.45,0,.9,0,1.36,0,.23,0,.45,0,.68,0h1.98c.43,0,.85,0,1.29,0h0c.23,0,.46,0,.69,0,.08,1.27-.11,2.4-.63,3.47-.97,1.98-2.6,3.15-4.71,3.61-2.83,.61-5.3-.09-7.15-2.37-1.68-2.07-1.99-4.45-1.02-6.91,.96-2.45,2.88-3.81,5.46-4.18,2.48-.36,4.61,.42,6.34,2.23,.51,.53,.91,1.14,1.17,1.95h0Zm29.22-16.36c-.01,.18-.02,.36-.03,.53h0l-.18,.13s-.03-.07-.04-.1c-.03-.07-.06-.15-.11-.2-.49-.55-1.12-.89-1.83-1.04-1.72-.35-3.26,.06-4.53,1.28-1.04,.99-1.46,2.25-1.51,3.66-.12,3.19,2.27,5.54,5.41,5.32,.96-.07,1.77-.46,2.42-1.19,.08-.09,.16-.17,.25-.27h0l.06-.06s.02,.04,.03,.06l.02,.04s.03,.07,.03,.1c0,.23,.01,.45,0,.68-.07,1.24-.79,2.19-1.94,2.58-1.18,.39-2.36,.06-3.15-.9-.16-.2-.33-.28-.57-.28-.36,0-.71,0-1.07,0h0c-.28,0-.57,0-.85,0-.07,0-.14,.02-.23,.04-.04,.01-.09,.02-.14,.03,.04,.09,.07,.19,.1,.27,.06,.17,.12,.33,.2,.49,.51,1,1.3,1.71,2.35,2.08,1.87,.66,3.71,.53,5.44-.48,1.18-.69,1.87-1.72,2.08-3.07,.07-.44,.12-.89,.12-1.34,0-2.07,0-4.14,0-6.22h0c0-.69,0-1.39,0-2.08,0-.12-.01-.24-.02-.37,0-.07-.01-.13-.02-.21-.78-.03-1.5-.06-2.25,.01-.01,.18-.02,.34-.03,.49Zm.01,4.4c.02,1.72-1.24,3.03-2.94,3.04-1.71,0-3-1.3-3-3.06,0-1.7,1.29-3.03,2.97-3.05,1.71-.02,2.95,1.27,2.98,3.07Zm-14.1,11.42l.07,1.05,.14-.14h0c.11-.11,.2-.2,.29-.29,1.04-1.03,2.74-1.28,4.03-.61,.44,.23,.8,.55,1.08,.97,.07,.11,.15,.22,.24,.36l.11,.16c.05-.06,.09-.12,.14-.18,.09-.12,.18-.23,.26-.34,1.5-1.86,4.53-1.77,5.88,.16,.43,.61,.6,1.31,.61,2.03,.02,1.53,.02,3.06,.02,4.59,0,.6,0,1.19,0,1.78,0,.03-.01,.06-.03,.11h0l-.02,.05s-.01,.04-.02,.07c-.17,0-.35,0-.52,0h-1.69c0-.08-.01-.17-.02-.25h0c-.01-.16-.02-.31-.02-.45,0-1.58,0-3.16,0-4.74,0-.51-.05-1.01-.27-1.49-.33-.72-.9-1.04-1.67-1.03-.77,0-1.4,.27-1.78,.98-.23,.44-.31,.92-.3,1.42v5.51h-2.29c0-.06,0-.12-.01-.19h0c-.01-.13-.02-.26-.02-.39,0-.5,0-1,0-1.5,0-1.1,0-2.2-.01-3.3,0-.41-.05-.83-.15-1.22-.21-.78-.78-1.21-1.59-1.3-.85-.08-1.56,.28-1.93,.99-.25,.48-.33,.99-.33,1.53,0,1.56,0,3.11,0,4.66h0v.72h-2.28v-9.73h2.09ZM59.75,46.96l-.46,.38c3.56,8.75,7.1,17.43,10.66,26.17,.23-.17,.44-.33,.65-.48,.17-.13,.33-.25,.5-.37,.24-.18,.48-.37,.73-.55,.15-.11,.3-.23,.46-.35-1.46-3.61-2.92-7.21-4.38-10.82l-.05-.12v-.02c-2.08-5.12-4.15-10.24-6.24-15.39-.64,.53-1.25,1.04-1.87,1.55h0Zm40.61,49.9v-4.43h2.22c.13,.39,.18,12.09,.06,13.1-.39,.15-1.5,.17-2.14,.03v-.15h0c0-.12-.02-.26-.02-.38,0-.12,0-.24,0-.38h0c0-.08,0-.18,0-.28-.06,.05-.11,.1-.16,.13-.08,.06-.13,.11-.18,.17-.66,.78-1.51,1.15-2.51,1.24-3.49,.31-5.5-2.31-5.53-5.09,0-.92,.15-1.79,.56-2.62,1.06-2.16,3.44-3.1,5.66-2.52,.77,.2,1.4,.63,1.92,1.23l.13-.05h0Zm.14,3.89c0-1.76-1.31-3.09-3.05-3.09s-3.03,1.28-3.04,3.03c0,1.79,1.27,3.09,3.03,3.09,1.72,0,3.05-1.32,3.05-3.03Zm-87.33,.32v4.45c-.43,.16-1.8,.19-2.62,.07-.07-.74-.06-1.49-.05-2.24,0-.35,0-.7,0-1.04,0-.75,0-1.51,0-2.26h0c0-.34,0-.67,0-1.01,0-.36,0-.73,0-1.1h0c0-.74,0-1.49,0-2.23,0-.35,0-.7,0-1.06,0-.73-.01-1.47,.04-2.22,.07,0,.13-.01,.18-.02h0c.11-.01,.2-.02,.3-.02,.32,0,.65,0,.97,0h0c1.05,0,2.1,0,3.15,.01,.52,0,1.05,.07,1.57,.16,1.69,.31,2.66,1.38,3.08,3,.2,.78,.18,1.57-.02,2.35-.48,1.88-1.84,2.99-3.87,3.13-.46,.03-.93,.03-1.39,.03h0c-.21,0-.43,0-.64,0-.13,0-.26,0-.42,0h0c-.09,0-.18,0-.29,0Zm.71-2.3h0c-.23,0-.46-.01-.69,0v-3.93s.03-.03,.04-.04c.02-.03,.04-.05,.06-.05h.12c.82-.06,1.65-.11,2.46,.08,1.37,.32,1.97,1.71,1.28,2.95-.19,.34-.46,.59-.82,.73-.8,.3-1.61,.28-2.45,.26Zm20.48,6.84h-2.26l-.06-1.24s-.09,.09-.13,.12c-.07,.07-.12,.11-.16,.17-.66,.78-1.51,1.16-2.51,1.25-3.72,.34-5.77-2.64-5.49-5.71,.05-.57,.2-1.16,.41-1.69,.92-2.24,3.37-3.46,5.7-2.86,.71,.18,1.32,.54,1.82,1.09,.05,.06,.11,.12,.19,.2,.05,.05,.1,.11,.17,.18l.06-1.17c.45-.18,1.67-.2,2.26-.03v9.68h0Zm-5.3-1.82c1.74,0,3.02-1.31,3.02-3.11,0-1.72-1.31-3.02-3.05-3.02-1.7,0-3,1.34-3,3.08s1.29,3.05,3.02,3.05Zm3.6,8.76c-.01,.25-.03,.48-.04,.71h0s-.05,0-.06,0h0s-.04,0-.04,0c-.09-.09-.19-.18-.28-.28-.5-.54-1.11-.9-1.83-1.06-1.72-.37-3.26,.01-4.54,1.23-1.28,1.22-1.68,2.76-1.51,4.48,.25,2.62,2.05,4.41,4.67,4.58,1.29,.08,2.46-.26,3.34-1.3,.04-.04,.08-.08,.15-.14,.03-.02,.06-.05,.1-.08l.08,1.18h2.24v-9.73h-2.25l-.02,.4Zm.01,4.4c0,1.79-1.27,3.11-3.01,3.12h0c-1.73,0-3.03-1.29-3.04-3.02,0-1.73,1.3-3.08,2.99-3.1,1.71-.02,3.06,1.3,3.06,3.01Zm29.58,.82h-7.8c0,.06,0,.12,0,.17,0,.11-.01,.2,.01,.29,.25,1.11,1.31,1.94,2.57,2.02,1,.06,1.86-.24,2.47-1.08,.08-.11,.23-.23,.35-.24,.51-.02,1.02-.01,1.53-.01h.35c.07,0,.14,0,.2,0-.44,2.16-3.34,3.72-5.81,3.19-2.84-.62-4.6-3.46-3.93-6.33,.67-2.86,3.53-4.55,6.38-3.82,2.7,.69,4.2,3.54,3.67,5.81Zm-2.26-1.8c-.13-1.34-1.4-2.28-2.92-2.21-1.41,.06-2.56,1.03-2.57,2.21h5.49Zm1.14-17.8c-1.8,3.3,.28,7.8,4.63,7.73h0s.09,0,.13,0h0c.09,0,.18,0,.26,0,2.52-.11,4.49-1.94,4.82-4.55,.29-2.29-.97-4.73-3.41-5.55-.76-.26-1.55-.33-2.34-.26-1.81,.17-3.22,1-4.1,2.62Zm4.63-.5c1.66,0,2.93,1.35,2.92,3.08-.01,1.69-1.29,3.01-2.93,3.01s-2.97-1.35-2.96-3.05c0-1.71,1.32-3.05,2.97-3.04Zm12.97-1.8c.79-.09,1.51-.07,2.22-.03,.14,.49,.15,9.19,.02,9.76h-2.05c-.03-.34-.06-.68-.1-1.11-.05,.06-.09,.1-.13,.14h0c-.07,.08-.13,.13-.18,.19-.57,.67-1.3,1.04-2.16,1.07-.6,.02-1.21,0-1.79-.12-1.09-.22-1.86-.91-2.24-1.95-.19-.52-.33-1.09-.35-1.64-.03-1.5-.03-2.99-.02-4.49,0-.5,0-1,0-1.5,0-.06,0-.13,.02-.21v-.08l.02-.05c.73-.09,1.45-.06,2.24-.02,0,.09,.01,.17,.02,.26h0c.01,.15,.02,.29,.02,.43,0,.48,0,.96,0,1.45h0c0,1.06,0,2.12,.01,3.18,0,.43,.05,.87,.16,1.28,.19,.71,.69,1.15,1.42,1.29,.51,.1,1.01,.07,1.5-.09,.64-.22,1.04-.68,1.21-1.32,.1-.38,.14-.78,.15-1.17,.01-1.16,.01-2.31,0-3.47h0c0-.39,0-.77,0-1.16v-.65Zm3.39,9.75h2.26v-.67c0-.37,0-.74,0-1.11,0-1.11,0-2.23,0-3.34,0-.28,.01-.57,.06-.84,.22-1.48,1.28-2.21,2.75-1.93,.79,.15,1.29,.61,1.48,1.37,.1,.39,.14,.81,.14,1.22,.01,1.07,.01,2.15,.01,3.22h0c0,.49,0,.98,0,1.46,0,.13,.01,.26,.02,.4h0c0,.07,.01,.15,.02,.23,.79,.02,1.51,.03,2.23,0v-.07l.02-.05c.01-.07,.02-.12,.02-.18,0-.57,0-1.14,0-1.7h0c0-1.44,0-2.89-.03-4.33-.01-.59-.18-1.19-.38-1.75-.36-.98-1.1-1.62-2.11-1.87-.54-.13-1.12-.16-1.68-.15-.95,.02-1.75,.38-2.37,1.12-.05,.05-.1,.1-.17,.16h0s-.09,.07-.14,.11c0-.15-.01-.29-.02-.43-.01-.22-.02-.42-.03-.64-.72-.08-1.4-.09-2.13,0v3.28c0,.36,0,.73,0,1.09,0,.73,0,1.45,0,2.18,0,.33,0,.67,0,1h0c0,.73-.01,1.46,.04,2.2Zm-47.17-9.79h0c.19-.01,.36-.02,.53-.02,.38,0,.75,0,1.13,0h0c.47,.01,.47,.01,.64,.47,.47,1.26,.93,2.53,1.4,3.79,.2,.53,.39,1.07,.59,1.6,.04,.11,.09,.22,.15,.37,.03,.08,.07,.17,.11,.27,.04-.09,.08-.17,.11-.24h0c.06-.13,.11-.23,.14-.34,.32-.89,.65-1.78,.97-2.68h0c.32-.9,.64-1.79,.97-2.68,.2-.56,.21-.57,.8-.57,.39,0,.78,0,1.15,0h.52s.05,.05,.07,.07c.02,.02,.03,.03,.03,.04,0,.02,.02,.04,.01,.06,0,.02-.01,.05-.02,.07h0c-.01,.07-.03,.13-.05,.2-1.66,4.25-3.32,8.51-5,12.79h-2.43c.02-.06,.04-.13,.06-.19h0c.04-.12,.08-.23,.12-.34,.08-.19,.16-.38,.24-.58h0c.3-.73,.61-1.46,.93-2.17,.15-.34,.14-.63,0-.97-.89-2.24-1.77-4.48-2.64-6.72h0l-.59-1.52c-.06-.15-.11-.3-.17-.48h0l-.03-.09-.05-.13h0c.11,0,.21-.01,.3-.02Zm28.1,23.3h0s-.1,.01-.16,.02h0c.09,1.09,.57,1.88,1.42,2.44,.65,.43,1.38,.62,2.14,.64,1.15,.03,2.21-.26,3.04-1.11,1.48-1.51,1.02-3.87-.92-4.69-.26-.11-.53-.19-.8-.28h0s-.07-.02-.11-.03c-.04-.01-.07-.02-.11-.03-.14-.05-.28-.09-.42-.13h0c-.22-.07-.44-.13-.66-.21-.24-.09-.49-.21-.7-.36-.64-.48-.53-1.3,.22-1.61,.77-.32,1.47,0,1.76,.78,.01,.03,.03,.06,.05,.09h0l.02,.03h2.19c-.08-1.01-.5-1.76-1.31-2.29-.47-.31-.99-.47-1.53-.54-1.26-.15-2.41,.09-3.33,1.03-1.35,1.39-1.02,3.36,.7,4.24,.22,.11,.45,.2,.68,.28l.1,.04c.21,.08,.42,.15,.63,.23h0c.29,.1,.57,.21,.86,.32,.24,.1,.49,.21,.7,.35,.67,.46,.66,1.34-.02,1.79-.83,.55-2.03,.15-2.26-.68-.02-.07-.05-.13-.09-.21-.02-.04-.04-.08-.06-.12-.2,0-.41,0-.61,0-.4,0-.8,0-1.2,0-.07,0-.15,.01-.24,.02Zm-40.11-13.51h-2.23c-.08-.76-.07-1.51-.06-2.26h0c0-.35,0-.71,0-1.06,0-.75,0-1.51,0-2.26h0c0-.34,0-.67,0-1v-6.62h2.28v13.2Zm34.94-9.76h-2.07c-.15,.78-.11,9.33,.04,9.76h2.18v-.64c0-.42,0-.84,0-1.26,0-1.05,0-2.1,0-3.14,0-.32,.02-.64,.08-.95,.18-1.03,.81-1.62,1.86-1.74,.12-.02,.24-.03,.38-.04,.09,0,.18-.02,.28-.03,0-.15,0-.31,0-.46,.01-.61,.02-1.22-.03-1.87-.13,.03-.26,.04-.38,.06-.25,.04-.48,.07-.69,.15-.31,.12-.61,.29-.88,.49-.17,.13-.32,.3-.49,.48-.08,.09-.16,.17-.24,.27l-.06-1.08Z"/></svg>