<svg width="91" height="72" viewBox="0 0 91 72" fill="none" xmlns="http://www.w3.org/2000/svg">
<path fill-rule="evenodd" clip-rule="evenodd" d="M73.4188 64.0088C71.1987 64.4312 68.9039 64.2314 66.7917 63.4317C64.6795 62.632 62.8331 61.2641 61.4596 59.4812C60.0861 57.6983 59.2397 55.5708 59.0151 53.3371C58.7905 51.1034 59.1967 48.8517 60.1881 46.8343L60.469 46.2775C62.8533 41.4534 63.9608 36.1058 63.6874 30.7389C63.4139 25.372 61.7684 20.1627 58.906 15.6023C56.0436 11.0419 52.0586 7.28062 47.327 4.67319C42.5953 2.06577 37.2728 0.698118 31.8614 0.699219C25.5599 0.69898 19.3998 2.55442 14.1602 6.0309C8.9206 9.50737 4.83681 14.4487 2.42529 20.2301C0.0137724 26.0114 -0.617167 32.3731 0.612265 38.5105C1.8417 44.648 4.87628 50.2855 9.33225 54.7103C9.58312 54.9594 9.84653 55.2085 10.1074 55.4514L12.0228 46.3161C9.09333 42.2361 7.52151 37.3487 7.52726 32.3378C7.52726 19.0097 18.44 8.1729 31.8614 8.1729C45.2828 8.1729 56.1955 19.0097 56.1955 32.3378C56.206 36.023 55.3595 39.6609 53.722 42.9679L53.436 43.5272C52.1066 46.2069 51.4197 49.1558 51.429 52.1431C51.429 62.9264 60.2633 71.6992 71.1221 71.6992C75.1149 71.7031 79.0135 70.4954 82.2958 68.2377L73.4088 64.0175L73.4188 64.0088ZM43.0312 53.8134C39.5861 55.5778 35.7666 56.4998 31.8903 56.5026C28.014 56.5054 24.1931 55.589 20.7454 53.8296L11.6565 56.8041C17.3438 61.4603 24.4905 63.9972 31.8614 63.9764C36.951 63.9749 41.9667 62.7659 46.4907 60.45C47.3637 59.9871 48.018 59.2013 48.3118 58.2628C48.6055 57.3242 48.5151 56.3086 48.0602 55.4358C47.6052 54.5629 46.8223 53.9033 45.881 53.5996C44.9397 53.2959 43.9159 53.3727 43.0312 53.8134ZM35.7499 32.5869C35.7499 34.9259 33.8405 36.822 31.4852 36.822C29.1298 36.822 27.2205 34.9259 27.2205 32.5869C27.2205 30.2479 29.1298 28.3518 31.4852 28.3518C33.8405 28.3518 35.7499 30.2479 35.7499 32.5869ZM18.9417 36.822C21.2971 36.822 23.2065 34.9259 23.2065 32.5869C23.2065 30.2479 21.2971 28.3518 18.9417 28.3518C16.5864 28.3518 14.677 30.2479 14.677 32.5869C14.677 34.9259 16.5864 36.822 18.9417 36.822ZM48.2932 32.5869C48.2932 34.9259 46.3838 36.822 44.0284 36.822C41.6731 36.822 39.7637 34.9259 39.7637 32.5869C39.7637 30.2479 41.6731 28.3518 44.0284 28.3518C46.3838 28.3518 48.2932 30.2479 48.2932 32.5869ZM72.8998 54.0251C73.8853 53.0463 73.8853 51.4595 72.8998 50.4808C71.9142 49.5021 70.3163 49.5021 69.3307 50.4808C68.3451 51.4595 68.3451 53.0463 69.3307 54.0251C70.3163 55.0038 71.9142 55.0038 72.8998 54.0251ZM66.9436 51.6799C67.2638 53.027 66.4236 54.3768 65.0671 54.6947C63.7106 55.0127 62.3513 54.1784 62.0311 52.8312C61.711 51.4841 62.5511 50.1343 63.9077 49.8164C65.2642 49.4985 66.6234 50.3328 66.9436 51.6799ZM78.7053 49.9372C77.4176 49.4075 75.9413 50.0147 75.4079 51.2935C74.8745 52.5723 75.486 54.0383 76.7738 54.568C78.0615 55.0976 79.5378 54.4904 80.0712 53.2116C80.6046 51.9329 79.9931 50.4668 78.7053 49.9372ZM68.4613 33.6814C69.167 32.9806 70.1241 32.5869 71.1221 32.5869C81.9809 32.5869 90.8152 41.3598 90.8152 52.1431C90.8148 55.1479 90.1162 58.1121 88.7739 60.805C87.4316 63.498 85.4817 65.8471 83.076 67.6696L81.2823 58.7772C82.4872 56.9558 83.1737 54.8447 83.2689 52.6675C83.3642 50.4903 82.8647 48.3281 81.8234 46.4098C80.7821 44.4915 79.2377 42.8886 77.3538 41.7709C75.4699 40.6531 73.3167 40.0622 71.1221 40.0606C70.1241 40.0606 69.167 39.6669 68.4613 38.9661C67.7556 38.2653 67.3591 37.3148 67.3591 36.3238C67.3591 35.3327 67.7556 34.3822 68.4613 33.6814Z" fill="white"/>
</svg>
