<svg width="79" height="65" viewBox="0 0 79 65" fill="none" xmlns="http://www.w3.org/2000/svg">
<path d="M7.69321 31.5702V30.3389C7.68765 26.3085 8.55117 22.323 10.2265 18.6463C11.8599 15.0624 14.1969 11.8327 17.103 9.14337C23.1292 3.52386 31.1301 0.431641 39.6332 0.431641C48.1362 0.431641 56.1372 3.52386 62.1634 9.14337C65.0694 11.8327 67.4065 15.0624 69.0398 18.6463C70.7152 22.323 71.5787 26.3085 71.5732 30.3389V31.5702C73.6611 31.9576 75.5461 33.0518 76.9022 34.6637C78.2583 36.2756 79.0003 38.3039 79 40.3978V47.942C79 50.324 78.0399 52.6084 76.331 54.2927C74.622 55.977 72.3041 56.9232 69.8873 56.9232C64.8544 56.9232 63.5084 52.9023 63.5084 47.942V40.3978C63.5084 37.029 64.1299 34.0931 66.1055 32.5564V30.3389C66.1055 23.8186 63.3717 17.68 58.4071 13.0547C53.4006 8.38985 46.7329 5.82034 39.6332 5.82034C32.5335 5.82034 25.8657 8.38985 20.861 13.0547C15.8946 17.68 13.1608 23.8186 13.1608 30.3389V32.5564C15.1365 34.0931 15.7579 37.029 15.7579 40.3978V47.942C15.7579 49.3583 15.6477 50.6974 15.3743 51.8937C16.0805 52.9032 17.2406 53.8777 18.7815 54.7228C21.3222 56.1149 24.6884 57.0301 28.287 57.3381C27.995 56.4578 27.8465 55.5375 27.8468 54.6114C27.8468 49.0718 51.4195 49.0718 51.4195 54.6114C51.4195 60.151 46.1433 64.6416 39.6332 64.6416C37.2634 64.6569 34.9341 64.0359 32.8953 62.8454H30.9761C25.4092 62.8454 20.132 61.632 16.1225 59.4325C14.5214 58.5533 13.1699 57.5465 12.0892 56.4238C11.3328 56.7436 10.438 56.9232 9.37906 56.9232C6.96223 56.9232 4.64438 55.977 2.93542 54.2927C1.22646 52.6084 0.266373 50.324 0.266373 47.942V40.3978C0.266029 38.3039 1.00806 36.2756 2.36419 34.6637C3.72031 33.0518 5.60529 31.9576 7.69321 31.5702Z" fill="white"/>
</svg>
